<svg xmlns="http://www.w3.org/2000/svg" width="54" height="87" fill="none"><path stroke="#E22400" stroke-linecap="round" stroke-linejoin="round" stroke-width="1.051" d="M21.025 17.377c-.03-.003-.206-.454-.374-1.382-.175-.967.454-1.929.84-2.788.192-.425.47-.78.826-.978s.806-.216 1.257-.09c1.87.527 3.256 1.982 4.932 2.677.827.343 1.785.236 2.69.12 1.834-.232 3.258-1.63 4.725-2.521.343-.208.816.057 1.04.355.225.299.24.764.212 1.399-.029.633-.102 1.422-.252 2.02-.15.6-.375.986-.696 1.368a5.6 5.6 0 0 1-1.162 1.033c-1.64 1.086-3.658 1.403-5.472 2.011a9.1 9.1 0 0 1-3.065.468c-.981-.02-1.944-.26-2.828-.589a3.9 3.9 0 0 1-1.201-.717 2.6 2.6 0 0 1-.778-1.158c-.162-.483-.21-1.067-.206-2.764"/><path stroke="#E22400" stroke-linecap="round" stroke-linejoin="round" stroke-width="1.051" d="M18.962 14.59c-.031-.004-.493-.03-1.33-.214-.412-.091-.714-.452-.989-.823a4.2 4.2 0 0 1-.635-1.28 5 5 0 0 1-.198-1.445c.001-.492.062-.978.227-1.412.164-.433.43-.799.789-1.046.358-.247.802-.364 1.46-.385.66-.02 1.521.06 2.163-.003s1.04-.272 1.377-.564c1.387-1.2 1.948-3.093 2.717-4.705.19-.4.604-.647.993-.739s.81.022 1.228.192c.84.341 1.633.804 2.455 1.144 2.024.836 4.797.54 6.64.512.454-.007.883.104 1.28.28.397.175.749.454 1.054.797s.556.744.715 1.17c.313.837.269 1.78.343 2.675.073.874.697 1.633 1.032 2.453.166.408.153.86.148 1.316-.006.455-.05.915-.216 1.32-.168.403-.458.737-.773 1.06s-.646.626-.987.937"/><path stroke="#E22400" stroke-linecap="round" stroke-linejoin="round" stroke-width="1.051" d="M22.875 11.176c.003-.027-.267-.43-.904-1.06-.313-.31-.824-.326-1.219-.196-.394.13-.713.474-.774.85-.06.375.146.771.503 1.007s.859.299 1.26.119c.402-.18.69-.604.837-1.046s.145-.89-.054-1.25c-.2-.358-.596-.614-1.022-.773a2.66 2.66 0 0 0-1.33-.147 3.3 3.3 0 0 0-1.32.511c-.392.257-.697.576-.884.976-.186.4-.246.873-.045 1.26.202.389.666.678 1.134.87s.923.278 1.388.344.924.108 1.323-.05c.4-.158.724-.519.803-.945s-.096-.907-.418-1.22-.785-.443-1.248-.516-.91-.084-1.33.015c-.421.1-.802.31-1.1.64-.298.332-.5.777-.441 1.196s.385.795.996 1.046c.611.25 1.497.363 2.144.257.646-.107 1.027-.434 1.274-.838s.35-.871.246-1.308c-.104-.436-.418-.826-.79-1.083a1.86 1.86 0 0 0-1.232-.333c-.436.038-.875.23-1.166.568a1.7 1.7 0 0 0-.378 1.257c.044.439.268.823.645 1.08s.9.378 1.426.413 1.038-.018 1.473-.232c.434-.214.775-.587 1.021-1.004s.386-.87.401-1.331c.015-.462-.1-.92-.393-1.216a1.18 1.18 0 0 0-1.18-.279c-.42.134-.774.522-1.015.97a2.9 2.9 0 0 0-.345 1.433c.012.487.158.948.46 1.242s.755.408 1.23.359c.476-.049.96-.264 1.353-.615.394-.35.682-.832.895-1.298.399-.877.544-1.981.577-3.182.016-.572-.2-1.063-.51-1.354-.31-.29-.767-.362-1.128-.129-.361.234-.612.776-.785 1.297-.328.985-.414 2.164-.375 3.366.018.55.367.943.731 1.193.365.25.82.336 1.24.253s.79-.339 1.079-.664c.574-.647.817-1.552 1.045-2.514a6.9 6.9 0 0 0 .16-1.682 4.2 4.2 0 0 0-.304-1.508c-.19-.466-.47-.896-.837-1.117s-.816-.219-1.127.007c-.31.226-.47.676-.605 1.177-.278 1.031-.426 2.428-.393 3.854.013.605.409.93.827 1.133.419.203.947.266 1.409.15.46-.118.838-.416 1.15-.811s.545-.88.703-1.473a6.3 6.3 0 0 0 .203-1.876 4.1 4.1 0 0 0-.364-1.498c-.193-.43-.434-.803-.773-1.109-.34-.306-.77-.534-1.193-.439-.422.096-.824.523-1.113 1.018s-.455 1.046-.59 1.86-.232 1.876-.132 2.597c.1.72.402 1.068.776 1.224.373.155.81.109 1.12-.125.309-.233.477-.652.557-1.107.08-.456.065-.935-.165-1.196s-.675-.289-1.044-.12c-.368.168-.646.532-1.007.715s-.796.173-.993-.192-.141-1.084-.026-1.692c.406-2.139 1.157-3.525 1.609-4.178.215-.311.738-.266 1.46-.244s1.713.101 2.432.227c.719.125 1.135.295 1.51.534 1.515.964 2.148 2.406 2.591 2.756.105.083.074-.466-.153-.827-.228-.36-.623-.63-1.069-.813-1.816-.746-3.782-.812-5.62-.94-.411-.03-.65.486-.686.467-.037-.02.157-.42.475-.707.318-.286.754-.448 1.431-.497a9 9 0 0 1 2.264.16c.68.143 1.109.357 1.532.616q.635.39 1.208.892c.38.336.723.701.674.825-.049.123-.5-.006-.97-.007-.468-.002-.94.13-1.387.351-1.875.933-2.898 2.671-3.597 3.75-.318.492-.428.95-.26 1.066.17.117.653-.1 1.004-.456.35-.355.553-.841.701-1.335.29-.966.37-1.925.282-2.757-.043-.406-.43-.705-.725-.693-.295.011-.575.362-.8.775-.458.84-.641 1.85-.801 2.868-.082.52-.12 1.052-.034 1.533.087.48.312.895.661 1.159.35.263.816.364 1.24.223.426-.141.796-.528 1.063-.994.538-.943.647-2.2.72-3.406a2.8 2.8 0 0 0-.264-1.423c-.194-.409-.508-.757-.89-.762s-.823.344-1.177.802c-.721.935-1.008 2.196-1.272 3.543-.144.733-.216 1.583-.137 2.213s.334 1.016.699 1.258.833.326 1.267.243.819-.338 1.137-.66a3.5 3.5 0 0 0 .732-1.12c.345-.827.423-1.81.414-2.813-.005-.502-.216-.978-.468-1.428s-.592-.856-1.023-1.031c-.432-.176-.945-.109-1.346.159-.4.268-.671.734-.91 1.255-.486 1.06-.751 2.692-.817 4.478-.028.753.252 1.192.605 1.492.354.3.847.447 1.306.331s.868-.498 1.187-.93c.624-.847.9-1.93 1.164-3.24.155-.766.228-1.759.215-2.477-.014-.719-.148-1.138-.443-1.332-.296-.193-.748-.148-1.071.15-.324.298-.504.846-.648 1.436-.29 1.193-.42 2.623-.447 4.08a2.47 2.47 0 0 0 .505 1.574c.292.383.704.61 1.151.69s.918.006 1.325-.24c.408-.247.737-.665 1.04-1.15.622-.996.985-2.163 1.26-3.536.157-.788.257-1.78.224-2.501s-.225-1.143-.531-1.17c-.306-.028-.718.352-1.053.84-.689 1.008-.99 2.332-1.299 3.835-.174.846-.269 1.883-.154 2.59.114.707.471 1.057.879 1.258s.856.243 1.265.122c.41-.12.766-.404 1.094-.769.676-.752 1.107-1.77 1.446-2.818.334-1.03.393-2.247.319-3.388-.034-.51-.467-.814-.818-.757s-.71.502-.99.968c-.542.9-.785 1.912-.995 2.952-.112.552-.147 1.171.005 1.65.151.48.514.807.944.86s.915-.18 1.318-.632c.403-.453.708-1.121.926-1.793.422-1.303.521-2.647.424-3.461-.028-.23-.534.156-.856.689-.719 1.189-.95 2.527-1.145 3.668-.107.627-.157 1.36.043 1.709.2.348.669.29 1.001-.02.333-.311.515-.873.663-1.426.286-1.07.469-2.724.537-4.617.028-.788-.21-1.224-.504-1.236-.293-.012-.698.415-1.042 1.158-.794 1.716-.98 3.8-.945 5.376.014.653.453.962.79.903s.67-.505.932-1.162c.583-1.46.714-3.29.761-4.894.02-.7-.198-1.164-.516-1.375-.317-.212-.786-.154-1.29.279-1.22 1.049-1.842 2.724-2.332 4.007a7.7 7.7 0 0 0-.426 1.742c-.073.53-.072.993.136 1.315.209.323.625.493 1.092.452.466-.04.97-.297 1.355-.62.385-.325.637-.708.853-1.137.437-.868.655-1.85.815-2.87.084-.534.126-1.11.018-1.578-.108-.469-.379-.813-.717-.8-.338.015-.735.399-1.02.835-.287.436-.449.913-.588 1.61-.14.696-.251 1.598-.234 2.273.018.675.167 1.096.46 1.405.292.31.723.494 1.128.418.406-.076.772-.419 1.03-.806 1.041-1.555.937-3.643.944-5.118.004-.631-.295-1.009-.552-1.016s-.54.37-.79.853c-1.088 2.091-1.093 4.18-1.109 5.595-.007.613.255 1.003.598 1.177s.828.118 1.198-.123c.37-.242.61-.668.821-1.14.431-.96.657-1.954.68-2.43.003-.066-.275.411-.42.941s-.213 1.147-.082 1.305c.13.158.463-.16.687-.58.224-.418.33-.927.198-1.055-.133-.128-.508.14-.741.651-.234.512-.315 1.258-.155 2.224"/><path stroke="#E22400" stroke-linecap="round" stroke-linejoin="round" stroke-width="1.051" d="M29.302 16.122c-.054-.092-.494-.525-1.35-1.18-.413-.317-.906-.415-1.37-.403-.465.013-.917.187-1.213.488-.296.3-.422.723-.273 1.048.15.325.578.54.977.522a.98.98 0 0 0 .886-.65c.129-.376.017-.865-.234-1.294a3 3 0 0 0-1.051-1.03c-.412-.246-.837-.37-1.222-.276s-.717.41-.934.83c-.216.42-.307.933-.34 1.422-.032.49-.003.94.171 1.34.174.398.493.73.898.955.406.224.887.329 1.32.255a1.39 1.39 0 0 0 1.002-.698c.198-.37.215-.847-.547-1.021"/><path stroke="#E22400" stroke-linecap="round" stroke-linejoin="round" stroke-width="1.051" d="M26.206 14.955c-.58.004-1.93.038-2.64.278-.343.115-.373.705-.402 1.18-.03.476.013.945.23 1.334s.606.685.977.657c.37-.027.71-.386.917-.85.207-.465.271-1.025.204-1.553a3 3 0 0 0-.552-1.396c-.286-.388-.653-.668-.96-.614-.308.054-.546.45-.706.977a4.8 4.8 0 0 0-.186 1.716c.05.543.227.963.514 1.336a2.8 2.8 0 0 0 1.11.868c.432.182.892.225 1.233.054.341-.17.55-.555.822-1.567"/><path stroke="#E22400" stroke-linecap="round" stroke-linejoin="round" stroke-width="1.051" d="M30.205 16.773c-.06-.033-.315-.434-.859-1.136-.276-.357-.73-.558-1.13-.533s-.778.323-1.052.716c-.273.392-.432.869-.461 1.336s.075.912.378 1.186.801.364 1.311.333a3.8 3.8 0 0 0 1.495-.435 5 5 0 0 0 1.273-.955c.36-.372.628-.767.794-1.2.165-.432.22-.888.026-1.217-.193-.328-.636-.514-1.133-.613a4.1 4.1 0 0 0-1.523-.013c-.489.092-.911.282-1.34.557s-.851.63-1.174 1.019a3.1 3.1 0 0 0-.643 1.242c-.108.438-.107.886.137 1.227.245.34.731.561 1.261.692a4.4 4.4 0 0 0 1.604.098c.514-.068.966-.242 1.453-.503a8 8 0 0 0 1.404-.957c.41-.351.705-.7.93-1.121.223-.42.366-.902.233-1.255s-.545-.564-1.008-.623-.964.039-1.422.216c-.458.176-.859.429-1.258.751-.4.322-.785.707-1.063 1.144s-.436.914-.361 1.334.388.769.81.973c.42.203.938.252 1.414.208.476-.043.894-.179 1.355-.408.986-.488 1.8-1.232 2.414-1.977.303-.368.489-.787.361-.929-.128-.14-.6-.01-.936.281s-.524.738-.375.97c.15.23.64.233 1.037.023.822-.435 1.2-1.452 1.485-1.803.046-.057-.035.504-.177.948s-.325.847-.375.813c-.43-.29.323-1.418.507-1.828.187-.416-.826 1.132-1.671 1.823-1.015.83-2.172 1.366-3.146 1.703-.467.162-.914.195-1.412.2-.499.006-1.044-.045-1.4-.288s-.503-.678-.546-1.174c-.044-.497.023-1.043-.093-1.505s-.417-.822-.753-.85c-.337-.029-.7.287-.985.65a3.6 3.6 0 0 0-.608 1.198c-.13.435-.188.894-.008 1.216s.6.492 1.015.46.81-.271 1.114-.595c.303-.325.502-.727.522-1.159s-.141-.881-.483-1.129c-.342-.247-.858-.279-1.31-.168s-.826.367-1.146.703a2.86 2.86 0 0 0-.699 1.206c-.124.458-.111.95.087 1.33.197.38.579.631 1.226.817.647.187 1.549.3 2.253.274a3.9 3.9 0 0 0 1.646-.42 6.2 6.2 0 0 0 1.299-.824 6 6 0 0 0 1.067-1.15c.29-.415.485-.83.617-1.288.131-.458.192-.944.017-1.09s-.587.06-.755.41-.08.837.193 1.203c.272.366.727.596 1.18.707s.89.094 1.282-.074.724-.487 1.015-.835a6.1 6.1 0 0 0 1.063-1.98c.13-.438-.537 1.267-.558 1.734-.005.096.386-.36.518-.339.131.021.09.465.019.472-.072.007-.172-.436-.09-.472s.348.35.455.792.046.932-.111 1.374a3.6 3.6 0 0 1-.72 1.176 5.4 5.4 0 0 1-1.074.93c-.4.265-.824.472-1.364.62-1.166.32-2.773.266-4.37.075-1.07-.346-1.92-.807-2.773-1.31-.412-.258-.78-.524-2.005-1.573"/><path stroke="#E22400" stroke-linecap="round" stroke-linejoin="round" stroke-width="1.051" d="M22.392 13.549c-.06-.033-.44.278-1.02 1.016-.59.75-.557 2.496-.672 4.387-.048.783.117 1.213.32 1.614s.488.761.85 1.047c.36.286.79.487 1.334.627 2.247.58 4.16.084 5.997-.061 1.793-.142 3.602-.131 6.098-.075.577.013.955-.345 1.27-.704.645-.739.895-1.737 1.102-2.643.204-.891.224-1.792.076-2.644-.074-.43-.368-.8-.583-.795s-.398.409-.462.843c-.13.88.02 1.918-.244 2.902-.124.463-.645.686-1.242.96a12.8 12.8 0 0 1-3.939 1.08c-2.835.31-4.9-.92-6.81-1.598-.439-.156-.88-.27-.97-.582-.093-.313.174-.81.584-1.302.411-.491.958-.962 1.245-.944.287.02.297.542.218 1.027-.25.918-.535 1.787-.727 2.695-.081.484-.13 1.015-.181 1.562"/><path stroke="#E22400" stroke-linecap="round" stroke-linejoin="round" stroke-width="1.051" d="M36.18 17.635c.141-.39 1.277-1.975 2.406-3.578.547-.777 1.043-1.593 1.38-2.484.337-.892.337-1.902.316-2.86-.02-.94-1.058-2.05-1.924-3.732-.213-.413-.175-.884-.348-1.277-.174-.393-.473-.727-.846-.889s-.811-.143-1.26-.068c-1.795.431-3.631.674-5.509.77-.466.037-.92.096-1.556.182"/><path stroke="#E22400" stroke-linecap="round" stroke-linejoin="round" stroke-width="1.051" d="M29.6 3.423c.03.002-.338-.22-1.16-.641-.877-.45-2.357-.64-3.947-.65-.655-.003-.964.437-1.19.82-.912 1.536-.901 3.028-1.387 3.75-.484.718-2.02 1.036-3.808 1.715-1.709.65-2.747 1.604-3.37 2.195-.31.296-.439.74-.552 1.213s-.162 1.005-.082 1.477.29.868.591 1.185c.301.316.685.54 1.128.744.917.422 2.071.622 3.258.645a3.7 3.7 0 0 0 1.425-.372c.409-.203.753-.475 1.16-1.32"/><path stroke="#E22400" stroke-linecap="round" stroke-linejoin="round" stroke-width="1.051" d="M20.74 11.948c-.473-.233-1.827-.916-2.712-1.082-.394-.073-.692.39-.809.82s-.046.94.175 1.389c.222.447.593.815 1.02 1.099s.902.472 1.385.578c.484.106.962.123 1.323-.09.361-.212.59-.655.674-1.133a2.15 2.15 0 0 0-.214-1.388c-.225-.412-.601-.723-1.045-.92s-.944-.27-1.396-.16c-.453.11-.842.408-1.096.815-.254.408-.36.917-.298 1.407.061.49.294.947.678 1.236s.913.399 1.398.402c.486.004.912-.1 1.253-.354s.581-.652.73-1.109c.147-.457.194-.96.048-1.424-.145-.464-.485-.873-.896-1.184-.41-.312-.883-.514-1.33-.536-.445-.022-.85.142-1.079.45s-.27.756-.219 1.195.198.857.462 1.234c.265.378.643.703 1.06.906.415.203.857.274 1.263.167s.762-.393 1.024-.744c.262-.35.417-.757.507-1.21.089-.455.107-.945-.013-1.376a1.98 1.98 0 0 0-.72-1.05c-.344-.26-.767-.415-1.169-.366s-.772.303-1.007.683-.324.877-.342 1.375c-.017.498.04.981.247 1.413s.562.799.985 1.053c.422.255.901.387 1.386.477s.96.134 1.474.074c1.07-.125 2.137-.68 3.135-1.274.483-.287.86-.637 1.196-.988s.6-.717.795-1.125c.195-.407.31-.844.164-1.204-.146-.361-.557-.631-1.018-.65-.461-.017-.96.226-1.409.544s-.835.703-1.215 1.224a9 9 0 0 0-.99 1.763c-.45 1.088-.541 2.22-.522 3.325.01.549.268 1.054.583 1.424s.743.585 1.176.533.855-.375 1.148-.803c.294-.427.444-.949.538-1.477s.127-1.046.055-1.524-.249-.899-.57-1.224c-.32-.326-.78-.543-1.207-.55s-.809.204-1.123.503c-.315.3-.55.682-.751 1.09s-.357.831-.48 1.42c-.124.59-.21 1.333-.119 1.924.09.59.358 1.006.737 1.28.378.273.858.391 1.291.318s.804-.342 1.056-.736.375-.904.403-1.424c.027-.52-.043-1.035-.253-1.433a1.42 1.42 0 0 0-.984-.748 1.72 1.72 0 0 0-1.293.277c-.38.264-.635.691-.828 1.165-.388.955-.492 2.066-.442 3.094.023.478.36.824.73.951s.844.013 1.186-.247.536-.663.688-1.105.254-.91.306-1.382c.053-.473.053-.934-.088-1.374s-.422-.842-.8-1.028a1.1 1.1 0 0 0-1.167.12c-.32.26-.479.738-.594 1.342s-.181 1.322-.12 1.918c.06.596.25 1.048.555 1.373s.721.507 1.153.6.87.09 1.342-.099c1.039-.416 1.844-1.306 2.63-2.136.943-.996 1.61-2.076 2.111-2.954 1.387-2.428 1.923-5.712 2.178-6.553.1-.328.164 1.252.415 2.1.125.424.444.765.608.669.598-.347.22-1.788.109-2.87-.054-.527-.13-1.011-.278-.982-2.142.428-1.38 4.213-1.51 4.605-.557 1.68 1.108-3.374 1.575-4.324.226-.46.514-.832.818-.875.305-.044.638.263.78.817.143.555.085 1.347-.046 2.005-.132.659-.336 1.159-.588 1.577-.251.42-.545.742-.841.699-.297-.043-.589-.46-.673-1.38s.046-2.328.205-3.277c.16-.95.342-1.397.641-1.716.3-.32.71-.497 1.009-.378.3.119.476.54.579 1.04.215 1.053.051 2.802-.2 4.766-.105.822-.37 1.259-.662 1.348s-.656-.19-.781-1.083c-.332-2.365.27-4.379.625-5.234.177-.423.49-.757.84-.781.353-.024.772.291 1.02.731.372 2.159.278 4.121.082 5.527-.125.645-.301 1.15-1.126 1.918"/><path stroke="#E22400" stroke-linecap="round" stroke-linejoin="round" stroke-width="1.051" d="M35.399 10.5c-.203-.019-.927-.086-1.947-.377-.446-.126-.563-.638-.64-1.085a2.9 2.9 0 0 1 .069-1.355c.133-.43.388-.8.513-.694.54.461.03 2.075-.154 3.504-.16 1.237-.61 2.217-1.026 3.068-.21.43-.498.815-.829.907s-.714-.132-.938-.584c-.513-1.035-.23-3.05.056-5.122.116-.847.454-1.23.798-1.32s.755.136.997.48.302.796.289 1.273a4.4 4.4 0 0 1-.265 1.398c-.163.435-.398.804-.516.711-.118-.092-.113-.657 0-1.17a3.05 3.05 0 0 1 .626-1.314c.298-.356.667-.611.878-.494.21.118.25.616.248 1.202a10 10 0 0 1-.156 1.804c-.108.557-.279.992-.43.942s-.276-.596-.225-1.26c.051-.662.283-1.425.55-2.151.266-.726.56-1.393.805-1.488.244-.096.43.4.484 1.107.228 3.013-.432 4.775-.365 5.887.021.345.551.1.922-.166.37-.267.703-.586.976-.515s.477.54.554 1.003c.076.464.02.906-.104 1.365a6 6 0 0 1-.55 1.345c-.238.426-.521.804-.649.741-1.388-.686-.013-2.966.177-3.99.093-.505.37-.935.641-1.329.272-.394.578-.729.904-.763s.662.243.86.12c1.434-.89.322-3.047.176-3.845-.07-.383-.543-.586-.749-.933s-.234-.798-.12-.852.371.304.54.709.243.845.263 1.411-.016 1.243-.14 1.342c-.126.1-.339-.398-.463-.967-.256-1.177-.134-2.515.069-3.303.047-.185.418.36.61.928.826 2.443.48 4.703.242 6.133-.17.598-.446.936-.723.915-.277-.02-.547-.408-.794-1.153"/><path stroke="#E22400" stroke-linecap="round" stroke-linejoin="round" stroke-width="1.051" d="M37.51 8.551c-.028-.03-.437-.33-1.265-.841-.416-.257-.895-.384-1.351-.457-.456-.072-.894-.056-1.323.107-.429.164-.835.473-1.23.847-.804.764-1.393 1.716-1.808 2.698-.21.498-.245 1.059-.027 1.356.217.298.733.332 1.208.13s.893-.64 1.247-1.108.63-.95.841-1.467c.21-.516.347-1.053.383-1.571.036-.519-.033-1.003-.344-1.184-.312-.181-.863-.044-1.316.3-.453.345-.79.893-1.086 1.526-.608 1.303-.92 3.202-1.012 5.13-.037.78.267 1.162.597 1.233s.757-.178 1.071-.529c.314-.35.5-.795.662-1.322.34-1.111.53-2.73.49-4.126-.011-.43-.535-.196-.86.277s-.57 1.205-.76 2.12c-.19.914-.317 1.99-.425 3.356M22.774 13.672c-.014-.015-.029-.03-.26.029-.232.059-.68.192-.968.486-1.305 1.334-.905 3.816-.973 6.37-.014.554.533.8.971.996s.923.312 1.638.423c.714.112 1.644.214 2.602.32"/><path stroke="#E22400" stroke-linecap="round" stroke-linejoin="round" stroke-width="1.051" d="M21.65 19.623c-.028-.03-.026.404.13 1.322.08.48.396.94.682 1.342s.59.72.975.927c.784.42 1.755.422 2.707.447 2.126.054 3.962-.731 5.754-.998.883-.131 1.764.29 2.617.427.427.07.867-.15 1.212-.425.344-.275.586-.674.787-1.096.356-.855.632-2.392.767-4.287.018-.804-.066-1.29-.328-2.734"/><path stroke="#E22400" stroke-linecap="round" stroke-linejoin="round" stroke-width="1.051" d="M37.36 7.738c.002-.013.003-.027.183-.169.18-.141.54-.411.914-.41s.753.283.985.648.304.807.34 1.295c.072 1.007-.072 2.58-.303 4.364-.098.755-.304 1.182-.526 1.594a4.1 4.1 0 0 1-.823 1.1c-.335.308-.73.534-2.097 1.116M28.487 10.299c-.031-.003-.223-.442-.603-1.296-.189-.425-.432-.802-.748-.865-.317-.064-.715.205-.915.575-.199.37-.187.833-.007.92.179.088.525-.213.677-.61.152-.396.099-.88-.069-1.336a3.3 3.3 0 0 0-.79-1.208c-.343-.335-.742-.574-1.13-.532s-.752.37-.987.898a3.5 3.5 0 0 0-.244 1.812c.084.569.35.97.723 1.127s.846.056 1.25-.163c.406-.218.728-.552 1.02-.929.59-.757.98-1.643 1.304-2.083.091-.124.287.423.577.753s.734.546 1.222.681c.488.136 1.006.184 1.412.033.405-.15.681-.502.689-.862.016-.765-.86-1.394-1.092-1.876-.915-1.902 4.592-.09 5.544-.376.461-.138.833-.395.803-.401s-.481.21-.864.512-.681.681-.942 1.097c-.26.417-.475.858-.37 1.12.104.264.534.334.813.136s.393-.665.396-.694-.106.395-.249.816c-.142.421-.313.826-.648 1.535"/><path stroke="#000" stroke-linecap="round" stroke-linejoin="round" stroke-width="1.051" d="M22.346 14.956c.03.003.42-.281 1.2-.787 1.57-1.016 3.632-.8 5.712-.792.676.003 1.537.12 2.194.27 1.117.252 1.899.82 2.482.957.228.053.253-.544.221-.988-.031-.445-.137-.875-.367-1.23-.231-.354-.584-.619-.976-.81-1.58-.771-3.301-1.368-6.076-1.76-.646-.092-1.081.089-1.512.21-.43.122-.849.272-1.244.505a4 4 0 0 0-1.053.91 3.3 3.3 0 0 0-.647 1.19c-.124.429-.138.876.073 1.17s.647.422 1.126.395c2.067-.114 3.376-1.237 4.328-1.424 1.951-.384 3.554.324 4.027.45.096.025-.205-.413-.561-.69-.727-.564-1.833-.87-3.28-1.199-.834-.19-1.907-.243-2.665-.22-.757.024-1.176.174-1.519.456s-.597.693-.528 1.01c.07.316.471.525.982.554 2.33.129 4.387-.535 7.152-.257.647.065 1.07.296 1.102.257.29-.35-1.159-.721-2.025-1.033-.898-.324-2.102-.448-3.395-.49-.59-.018-1.05.14-1.494.326a5.7 5.7 0 0 0-1.242.724c-.38.289-.713.608-.662.705.675 1.284 3.322-.845 5.39-.88.543-.01 1.104.08 1.576.224 1.788.549 2.87 1.7 3.207 2.048-.478.023-1.381-.092-2.273-.124-.448.009-.886.07-.679-.42"/><path stroke="#858585" stroke-linecap="round" stroke-linejoin="round" stroke-width="1.051" d="m23.93 12 .11.23M25.436 10.991l.209-.082M25.887 12.665l-.245.279M27.178 11.623l-.139-.13M27.408 10.232l-.186.033M27.492 12.763l-.141.44M29.736 13.042l-.133.206M29.605 11.193l-.097-.04M31.49 13.373l-.213.285M31.782 11.495l-.244.078M32.775 12.918l-.01.116"/><path stroke="#000" stroke-linecap="round" stroke-linejoin="round" stroke-width=".788" d="M22.614 15.305c.187-.033.867-.16 1.59-.324a16 16 0 0 1 2.087-.32c.7-.063 1.365-.257 2.063-.355a5.5 5.5 0 0 1 1.73.026c.685.126 1.185.704 1.852.869.166.04.34-.008.505-.054s.321-.121.482-.188.322-.124.724-.177"/><path stroke="#B51A00" stroke-linecap="round" stroke-linejoin="round" stroke-width=".526" d="M33.856 7.28c-.012-.002-.155.108-.38.356-.128.3-.266.687-.482 1.117-.118.212-.253.41-.561.819M34.646 8.57c-.013-.002-.182.088-.492.295-.147.115-.271.254-.416.392-.145.139-.307.273-.904.674M29.87 7.263l-.048.313M20.84 10.95c.009 0 .018.002-.121-.042-.14-.044-.43-.132-.736-.231-.306-.1-.62-.209-1.696-.28M20.812 11.03c.026.002.052.004-.035.093-.088.089-.29.264-.578.358s-.655.103-.974.131-.578.075-1.337.53M25.176 9.466c-.002.017-.306-.012-.84-.21-.264-.098-.377-.449-.506-.75a4.4 4.4 0 0 1-.29-.917 5.5 5.5 0 0 1-.067-.913M25.635 8.814c.018.002.05-.33.014-1.089-.057-.427-.192-.94-.284-1.345-.09-.406-.133-.69-.177-.982M27.228 8.831c-.003.026-.005.053-.05-.06-.046-.114-.134-.367-.143-.897s.066-1.331.149-2.526M27.917 8.627l.027-.341.148-1.848M23.66 16.637c0-.01 0-.02-.094.103a2.4 2.4 0 0 0-.414.8c-.128.423-.19 1.004-.227 1.872M25.35 16.446c-.027-.002-.053-.005-.174.076-.12.08-.336.244-.474.628-.14.385-.195.985-.253 1.604M27.3 15.248c0 .008-.001.016-.087.13-.085.115-.256.336-.37.671-.112.336-.163.78-.124 1.962M28.78 15.324c-.002.02-.213.213-.543.654-.12.259-.143.59-.11 1.076.034.486.125 1.118.219 1.77M30.74 15.352c-.02.051-.24.268-.554.693-.153.206-.097.506-.026.784s.205.554.356.848q.23.442.486.913M32.812 15.408c-.036-.003-.071-.007-.162.108a1.3 1.3 0 0 0-.266.648c-.03.3.06.658.131 1.008.07.349.119.678.168 1.016M35.345 12.428c0-.01.002-.02-.003-.165-.004-.145-.014-.425.093-.678.106-.252.328-.468 1.164-.93"/><path stroke="#B51A00" stroke-linecap="round" stroke-linejoin="round" stroke-width=".526" d="M34.955 12.078c-.061-.006-.123-.012-.033-.095.09-.084.334-.245.617-.33s.597-.091 1.501-.043M35.64 13.759c-.042-.004-.085-.008-.034-.126.05-.118.196-.349.426-.484.23-.136.54-.168.852-.184s.617-.014 1.46.037"/><path stroke="#E22400" stroke-linecap="round" stroke-linejoin="round" stroke-width=".526" d="M33.978 37.418c.031-.336.223-1.63.438-2.997.198-1.254.391-2.49.713-3.565.162-.539.424-1.05.684-1.538.253-.476.675-.84 1.116-1.158.221-.16.48-.253.747-.3.268-.048.547-.03.792.076.999.433 1.592 1.461 2.428 2.12.21.167.471.253.749.328s.581.112.854.063c.528-.095.942-.5 1.375-.796.217-.15.493-.186.75-.172.258.015.504.109.708.265.836.643.962 1.616 1.22 2.095.129.24.309.44.526.596.44.313.993.473 1.447.772.227.149.386.378.52.613.135.234.225.49.276.757.203 1.067.103 2.166-.073 4.763-.056.834.317 1.598.61 2.644.074.262.038.543-.047.79s-.254.46-.459.654c-.826.785-1.487 1.26-1.965 1.487-.987.469-1.904.158-2.455.233a1.85 1.85 0 0 0-.774.307c-.224.152-.39.357-.524.59-.268.466-.363 1.138-.522 1.817-.072.305-.333.462-.572.562-.24.1-.504.12-.81.114a4 4 0 0 1-.967-.124c-1.237-.334-2.268-1.215-3.264-1.91-.478-.335-.85-.798-1.203-1.25-.71-.912-1.138-2.076-1.658-3.145-.503-1.034-.777-2.145-.894-3.224-.011-.272-.013-.544-.027-.816-.014-.273-.042-.539-.002-1.553"/><path stroke="#E22400" stroke-linecap="round" stroke-linejoin="round" stroke-width=".788" d="M41.475 34.187c-.09.06-.369.22-.853.343-.245.063-.52-.143-.788-.24s-.528-.147-.74-.03c-.213.115-.37.4-.488.75-.249.737-.334 1.901-.417 3.171-.056.867.149 1.469.348 1.987.1.264.272.5.5.616.229.116.528.1.716-.046.188-.145.257-.419.317-.833.14-.959-.03-2.352-.43-3.88-.599-2.286-1.401-3.263-1.798-3.739-.193-.23-.446-.364-.667-.347-.22.017-.422.209-.568.68-.368 1.185-.29 2.5-.195 3.508.092.97.421 1.875.763 2.686.162.384.384.672.61.93s.47.466.73.594.528.17.746.08.38-.312.5-.733c.288-1.015.243-1.955.14-2.636-.28-1.826-1.134-3.275-1.951-4.683a2.1 2.1 0 0 0-.643-.69c-.246-.175-.542-.299-.746-.227-.204.07-.308.34-.386.746-.367 1.903.195 4.662.857 7.44.115.487.27.724.46.925.19.2.45.347.665.316.214-.031.374-.244.506-.604.306-.834.372-1.79.41-2.579.032-.68-.164-1.314-.376-2.058-.28-.98-.752-1.904-1.191-2.605-.203-.323-.435-.533-.671-.58s-.487.087-.666.607c-.473 1.373-.365 2.717-.269 3.62a10.4 10.4 0 0 0 .844 3.119c.155.337.375.563.619.708.243.145.527.19.756.08s.394-.376.507-.677c.23-.611.27-1.492.308-2.447.057-1.443-.551-2.748-.968-3.826-.173-.445-.36-.644-.574-.623-.215.02-.474.278-.663.949-.48 1.706-.382 3.29-.289 4.27.114 1.203.41 2.38.692 3.29.124.401.26.664.44.864s.413.326.63.295.411-.224.556-.515c.316-.642.406-1.874.525-3.271.145-1.719-.46-3.251-.923-4.552-.193-.542-.403-.804-.63-.856s-.49.126-.682.813c-.51 1.832-.38 3.485-.296 4.249.085.76.257 1.459.473 2.129.117.36.309.738.523 1.009.216.27.464.416.71.362s.481-.312.635-.644c.318-.69.334-1.713.377-2.836.1-2.65-1.264-4.99-1.574-5.554-.154-.28-.367-.51-.51-.425-.472.277-.356 1.386-.413 2.33-.143 2.378.41 4.538.61 5.238.104.364.28.724.498.916s.491.2.675-.03c.466-.58.416-1.791.455-3.1.097-3.304-1.088-5.756-1.356-6.113-.097-.13-.355.204-.493.76-.776 3.135-.053 5.81.25 6.995.069.267.268.465.43.452.16-.013.324-.261.478-1.044.41-2.074.362-4.11.173-5.453-.19-1.357-.576-2.617-.92-3.61-.147-.421-.302-.646-.457-.611s-.325.344-.443.698c-.243.725-.312 1.856-.305 2.818.002.26.288.017.44-.499a6 6 0 0 0 .2-1.827c-.034-.52-.19-.744-.386-.792-.195-.048-.427.087-.6.302-.803 1.003-.99 5.492-.955 7.826.002.128.333-.22.47-.685.632-2.135.12-3.314-.037-4.019-.074-.328-.232-.57-.4-.586-.167-.014-.364.212-.496.458-.99 1.853-.586 5.023-.484 5.737.056.387.181.815.334 1.129s.345.5.494.445c.148-.054.248-.352.345-.914.237-1.37.232-2.59.097-3.28-.063-.32-.19-.563-.335-.57-.145-.009-.324.23-.435.552-.24.698-.153 1.41-.06 2 .05.319.14.667.231.98.092.312.191.576.32.579.13.002.285-.264.332-.563.095-.614-.165-1.292-.319-1.662-.033-.08-.167.26-.164.782.007 1.27.282 2.438.464 3.203.086.364.198.669.378.773s.436-.005.617-.495c.182-.49.282-1.357.3-2.021.032-1.1-.312-2.33-.687-3.654-.155-.547-.315-.818-.45-.794-.136.023-.262.353-.35.833-.41 2.205.284 4.89.792 6.645.092.318.302.59.514.782.213.19.467.275.636.191s.245-.34.326-.868c.2-1.313.192-2.543-.018-3.59-.304-1.516-.836-2.848-1.188-3.695-.157-.379-.322-.632-.457-.631-.134 0-.248.27-.323.596-.34 1.465.17 3.838.627 5.886.23 1.026.77 1.922 1.273 2.557.226.284.531.366.768.275.236-.09.43-.389.59-1.045.4-1.639.345-3.012.209-3.637-.365-1.676-1.36-3.226-1.694-3.672-.172-.228-.42-.402-.585-.372s-.258.285-.333.764a9.3 9.3 0 0 0 .06 3.23c.548 2.817 1.305 4.297 1.67 4.887.176.286.436.477.688.556.25.079.51.024.695-.127.185-.152.286-.397.39-.707.225-.672.49-2.47.733-4.819.14-1.346-.221-2.509-.584-3.79-.159-.558-.336-.91-.539-1.21-.202-.3-.442-.533-.706-.574s-.542.117-.733.383c-.408.564-.503 2.177-.637 4.3-.106 1.675.246 2.84.466 3.66.208.774.547 1.421.905 1.923a.71.71 0 0 0 .687.311c.256-.04.529-.26.718-.6.41-.74.505-2.361.677-4.221.243-2.635-.883-5.185-1.202-5.94-.144-.342-.297-.578-.51-.61s-.496.15-.696.842c-.532 1.833-.364 4.064-.215 5.805.119 1.396.412 2.336.67 2.927.12.276.37.427.585.375s.423-.332.587-.708c.353-.809.525-2.47.715-4.455.248-2.59-.524-4.642-.794-5.376-.121-.33-.322-.528-.513-.527-.191 0-.395.218-.541.546-1.077 2.41-.615 7.12-.208 9.825.078.515.257.825.44 1.11.183.284.416.524.689.64a.88.88 0 0 0 .81-.043c.233-.145.383-.421.51-.773.274-.759.44-2.18.583-3.822.088-1.001-.119-1.736-.302-2.526-.373-1.613-.997-2.468-1.345-2.936-.176-.236-.398-.432-.58-.39s-.33.335-.422.638c-.09.303-.118.607-.107.902.012.295.065.573.139.55.073-.024.166-.358.205-.68.075-.617-.111-1.379-.347-2.215-.2-.71-.499-1.274-.842-1.69-.168-.204-.493-.212-.485-.208s.317.068.595.24c1.17.72 1.465 1.795 1.729 2.337.131.27.22.546.14.63-.081.085-.345-.027-.618-.29-.627-.604-1.077-1.517-1.51-2.288-.195-.35-.321-.628-.3-.88s.199-.472.46-.42c.696.137 1.22 1.087 1.742 1.83.507.72.824 1.422.895 1.837.023.135-.32.063-.625-.19-1.723-1.427-2.338-3.193-2.428-3.52-.025-.09.308.026.591.238.633.474 1.086 1.103 1.45 1.597.356.481.624.998.668 1.276.012.073-.329-.195-.633-.594-.707-.93-1.167-1.916-1.28-2.406-.033-.148.348-.06.63.129.604.407 1.052 1.146 1.52 1.898.954 1.528 1.096 2.63 1.163 2.902.264 1.065-.007-2.722.17-3.547.052-.247.34-.022.469.273.13.295.172.685.216.748.132.188.237-.75.33-1.005.101-.272-.394.796-.633 1.366-.251.598-.234 1.272-.18 1.84.025.27.236.468.428.453s.407-.258.566-.602c.344-.746.384-1.572.404-2.22.01-.31-.068-.578-.227-.667-.16-.09-.421.009-.615.26-1.69 2.19-.898 6.538-.71 7.467.085.413.266.674.44.72.173.047.364-.137.506-.426 1.209-2.445.867-6.327.813-7.078-.026-.365-.095-.694-.24-.703-.146-.01-.378.311-.61 1.461-.626 3.09-.7 5.524-.685 6.251.008.352.084.664.252.719s.442-.158.618-.409c.909-1.297.796-4.51.663-7.457-.025-.554-.156-.83-.276-.828-2.671.044-.967 7.185-.846 8.13.053.42.205.7.358.731s.331-.198.471-.602c.819-2.362.577-5.088.447-6.716a6 6 0 0 0-.166-.96c-.071-.287-.161-.55-.237-.504-1.538.93-.397 5.811-.102 8.19.047.38.309.58.46.488 2.308-1.396.953-6.687.913-7.36-.131-2.244-.594 5.56-.564 6.193.016.336.057.697.186.736.128.04.348-.256.574-1.473.225-1.216.45-3.344.532-4.229.148-1.586.035 5.15.13 5.42.493 1.41.508-3.978.59-4.627.134-1.07.158 2.965.304 4.158.04.32.203.024.276-.32.329-1.533.082-2.938.14-3.56.126-1.34.726 2.991.71 3.17-.063.645-.291-2.382-.422-4.026-.044-.543.108 2.247.175 3.833.023.526.014-1.72.052-2.26.083-1.199.17 2.903.103 3.54-.021.197-.068-.807-.107-1.126-.118-.972-.163 2.477-.134 3.258.047 1.279-1.173-3.117-1.513-3.644-.167-.258-.419-.43-.616-.371-.197.057-.357.367-.483.943-.304 1.394-.272 2.605-.174 3.263.049.326.171.621.36.736s.46.036.64-.146c.179-.182.258-.464.32-.805a5 5 0 0 0 .09-1.083 3 3 0 0 0-.204-.937c-.22-.58-.585-1.08-.996-1.493-.205-.206-.474-.324-.721-.309s-.482.187-.653.437c-.854 1.252-.73 3.206-.77 4.08-.009.2.164-.104.277-.655.114-.55.204-1.341.225-1.896.02-.554-.03-.849-.15-.847s-.305.31-.45.779c-.333 1.069-.434 2.525-.51 3.596-.019.28.111.025.203-.29.195-.678.316-1.796.309-2.76-.002-.245-.294.053-.438.391-.805 1.89-.526 4.15-.452 4.396.12.398.451-1.596.557-3.156.045-.656-.021-1.038-.113-1.1s-.231.206-.334.683-.166 1.154-.03 2.242"/><path stroke="#E22400" stroke-linecap="round" stroke-linejoin="round" stroke-width=".788" d="M36.583 40.268c-.019-.002-.304-.055-.8-.246-.241-.094-.37-.364-.503-.331-.132.032-.238.328-.261.611-.046.543.236 1.149.523 1.808.525 1.201 1.341 2.096 2.178 2.973.471.493.913.945 1.353 1.24.223.149.501.2.702.114s.328-.337.38-.603c.053-.267.026-.54-.037-.818-.127-.558-.413-1.09-.751-1.56-.165-.23-.413-.362-.556-.289-.142.074-.197.376-.19.68.014.602.301 1.249.61 1.889.146.3.322.517.525.719s.442.372.706.46.544.088.737-.048c.193-.135.29-.406.367-.845.183-1.033.147-1.952.037-2.542a2.8 2.8 0 0 0-.294-.835c-.14-.25-.332-.451-.543-.474s-.44.14-.582.362c-.29.45-.281 1.14-.302 1.835-.01.34.071.654.182.984.111.332.273.67.47.944s.423.47.647.458c.223-.011.437-.236.59-.699a5.55 5.55 0 0 0 .154-2.773 2.5 2.5 0 0 0-.359-.894c-.171-.253-.4-.423-.596-.386s-.35.285-.461.572c-.23.588-.313 1.663-.376 2.905-.026.51.085.781.25.998.167.218.416.373.661.385.245.011.476-.126.644-.332.344-.423.453-1.538.57-2.896a4 4 0 0 0-.074-1.232 2.8 2.8 0 0 0-.271-.824c-.132-.24-.313-.443-.465-.39-.152.054-.27.37-.366.962-.236 1.443-.194 2.659-.056 3.287.069.312.208.592.392.802s.427.336.655.276c.229-.061.436-.313.602-.609.642-1.144.67-2.284.865-3.477.14-.863.091-1.682-.057-2.27-.071-.284-.243-.51-.384-.478-.14.031-.274.335-.367.761a6 6 0 0 0-.032 2.43c.061.295.21.547.417.711.208.164.492.225.723.15s.397-.288.542-.55c.301-.547.434-1.174.521-1.775.045-.307.047-.623-.033-.895-.08-.27-.252-.489-.458-.484-.206.004-.44.237-.594.643-.156.407-.226.98-.226 1.405s.07.687.224.924c.155.238.39.443.657.585s.558.214.851.22.58-.055.785-.235.322-.477.399-.816c.077-.34.111-.714.089-1.033a2 2 0 0 0-.236-.82 2.1 2.1 0 0 0-.528-.658c-.216-.173-.461-.276-.658-.216-.198.06-.34.285-.437.649a4.5 4.5 0 0 0-.122 1.254c.02.395.109.674.263.92s.37.45.624.586.539.2.816.19c.276-.008.536-.09.744-.265.209-.176.357-.443.455-.759.098-.315.14-.67.085-.97a1.32 1.32 0 0 0-.405-.723 1.9 1.9 0 0 0-.692-.417c-.262-.096-.548-.149-.803-.09s-.47.23-.619.47c-.148.238-.22.54-.237.845-.016.306.027.608.162.875s.36.49.62.635c.262.146.554.207.85.183.296-.025.588-.139.796-.345s.323-.501.4-.793c.075-.29.108-.569.017-.81a.94.94 0 0 0-.568-.529 1.1 1.1 0 0 0-.82.046c-.27.12-.51.343-.693.58s-.3.48-.382.743c-.082.264-.124.54-.046.787.078.248.277.46.557.595s.635.186.946.15q.468-.056.765-.364c.198-.203.328-.48.413-.762s.12-.56.039-.8c-.083-.24-.284-.435-.538-.57a1.4 1.4 0 0 0-.853-.168c-.299.042-.587.2-.795.404a1.54 1.54 0 0 0-.4.72c-.074.274-.102.569-.003.828.099.258.324.47.587.6.263.127.557.165.833.13s.524-.145.746-.315.41-.398.555-.664c.145-.267.242-.566.26-.85.017-.284-.046-.545-.207-.712-.16-.168-.417-.235-.7-.23a1.9 1.9 0 0 0-.849.221 1.8 1.8 0 0 0-.624.568 1.53 1.53 0 0 0-.295.756c-.022.274.05.562.219.788.17.226.436.381.768.489.333.107.723.161 1.033.095.31-.067.527-.257.687-.482s.254-.48.33-.805c.075-.327.128-.717.07-1.044-.056-.328-.226-.58-.449-.657s-.495.028-.665.216-.23.455-.208.72.13.52.293.574.38-.102.507-.346c.127-.245.158-.575.153-.905-.02-1.258-.208-2.338-.344-3.46-.065-.54.002-1.32.102-2.215.043-.39.11-.647.1-.313-.071 2.633-.15 3.762-.18 4.032-.125 1.14.206-3.208.379-4.758.028-.257-.155-.507-.362-.706-.861-.826-2.01-1.098-2.826-1.82-.408-.36-.51-.969-.8-1.38-.143-.202-.438-.243-.643-.162-.637.808-1.082 1.504-1.462 1.86-.214.15-.47.24-1.504.392"/><path stroke="#E22400" stroke-linecap="round" stroke-linejoin="round" stroke-width=".788" d="M42.595 31.843a9 9 0 0 1-.955-.154c-.286-.058-.509-.243-.705-.43-.386-.367-.689-.854-1.088-1.273s-.992-.572-1.524-.724a2.9 2.9 0 0 0-.804-.107 1.5 1.5 0 0 0-.748.174c-.222.125-.398.327-.44.3-.043-.027.053-.29.234-.483.18-.193.444-.31.713-.352.27-.042.538-.007.765.141.976.638 1.65 1.536 2.492 2.264.898.775 1.414 1.408 1.626 1.574.748.587-1.624-1.665-2.217-2.466-.056-.075.305-.01.57.1 1.059.434 1.753.953 2.266 1.168.257.107.534.13.76.051.466-.163.745-.705 1.07-.917.137-.09.327.216.47.452.284.47.47 1.01.551 1.292.004.014-.114-.245-.08-.263.034-.017.213.21.358.477.294.543.449 1.134.517 1.4.078.297-.434-.905-.571-1.326-.258-.79.878 1.388 1.076 1.581.21.205-.24-.847-.346-1.146-.32-.893 1.266 1.288 1.451 1.467.224.215-.606-.655-.755-.897.433.784.67 1.747.738 2.318.03.288.057.571.047 1.256M48.697 35.434c.003-.032-.124-.281-.287-.493-.532-.69.223 1.982.18 3.337-.064 2.037-.072 2.852.048 3.376.083.257.21.498.397.68s.428.302.779.488"/><path stroke="#E22400" stroke-linecap="round" stroke-linejoin="round" stroke-width=".788" d="M48.635 39.768c-.015.267.104 1.446.18 2.58.02.275-.143.526-.326.697-.773.717-2.005.725-3.053 1.077-.532.18-1.112.272-1.655.522a5 5 0 0 0-1.177 1.354c-.122.26-.2.542-.321 1.255"/><path stroke="#E22400" stroke-linecap="round" stroke-linejoin="round" stroke-width=".788" d="M45.04 43.917c-.052-.005-.383-.035-.962.008-.283.02-.51.242-.71.442-.79.78-.994 1.96-1.299 2.963-.072.237-.37.34-.626.42-.514.16-1.323.08-2.253-.038a2.7 2.7 0 0 1-.987-.339c-.501-.273-.889-.671-1.271-1.061-.786-.8-1.31-2.049-1.831-3.276a3 3 0 0 1-.127-.853c-.003-.303.028-.635.06-.976"/><path stroke="#E22400" stroke-linecap="round" stroke-linejoin="round" stroke-width=".788" d="M39.318 41.13c-.085-.007-.413.023-.9.212-.238.091-.317.424-.414.937-.239 1.25-.21 2.384-.082 3.073.063.337.194.633.36.889.166.257.383.46.622.604.24.143.494.22.666.113.172-.106.254-.398.237-.667-.078-1.24-1.265-2.12-1.7-2.552-.216-.215-.479-.364-.719-.376-.24-.01-.462.135-.596.407s-.17.663-.133 1.032c.035.37.145.704.306 1.017a3.4 3.4 0 0 0 1.414 1.436c.285.148.575.236.854.245.28.01.542-.062.662-.231.121-.17.093-.436-.085-.785-.423-.826-1.119-1.504-1.647-2.043-.252-.257-.493-.457-.63-.402-.136.055-.166.376-.09.651s.258.494.481.71c.223.217.483.425.753.571s.544.225.798.14.48-.335.632-.628c.306-.585.362-1.6.426-2.752a3.8 3.8 0 0 0-.12-1.175c-.073-.311-.164-.566-.3-.582-.138-.017-.319.213-.469.905s-.264 1.84-.178 2.338c.086.499.374.314.585-.026.925-1.49.683-2.854.721-3.738.018-.406-.064-.728-.19-.762-.125-.035-.316.227-.459.801-.355 1.428-.314 2.622-.19 3.106.062.242.338.39.545.329.207-.062.392-.361.549-.654.594-1.108.776-2.313.87-3.359-.121.348-.3 1.605-.403 3.09-.021.599.021.884.331 1.493M44.499 43.128c-.038.05-.299.21-.52.467-.25.29.86.423 1.384.556s1.13.007 1.727-.15c.292-.076.533-.233.56-.208s-.173.218-.415.387c-.497.347-1.059.538-1.574.677-1.027.277-1.845-.074-2.335-.107-.241-.017-.447.242-.612.484-.281.532-.467 1.094-.611 1.663-.077.304-.16.639-.142 1.259M43.488 33.757c.001-.017-.061-.294-.142-.858-.087-.603.118-1.197.298-1.72.09-.263.23-.5.37-.512.138-.013.284.211.383.456.098.245.146.504.083.533-.062.028-.235-.181-.256-.134-.02.047.118.358.159.928s-.019 1.39-.154 1.898c-.135.51-.344.682-.488.6-.144-.08-.217-.42-.255-.788a7.2 7.2 0 0 1 .13-2.147c.028-.12.208.192.271.57.14.834-.01 2-.168 3.172-.066.497-.18.783-.303.82-.122.037-.268-.187-.306-.707s.038-1.328.128-1.924.192-.956.342-1.048.345.093.425.4.042.733-.133 1.52c-.174.788-.482 1.926-.84 3.52"/><path stroke="#000" stroke-linecap="round" stroke-linejoin="round" stroke-width=".526" d="M40.438 39.378c.001-.02-.133-.26-.367-.74-.118-.241-.155-.51-.176-.827s-.003-.682.122-.947c.126-.265.36-.42.616-.512.258-.093.532-.12.794-.066s.504.19.679.388c.723.818.587 1.848.625 2.422.02.307-.007.648-.146.864s-.401.295-.676.328c-.274.032-.554.014-.78-.098-.225-.113-.39-.32-.51-.598a3.7 3.7 0 0 1-.238-.925c-.043-.308-.054-.572.037-.8.09-.228.284-.412.5-.443.216-.03.45.097.62.285.169.189.267.435.347.722s.138.609.1.89-.174.514-.367.557c-.194.043-.442-.111-.606-.321s-.237-.472-.265-.754-.007-.579.1-.832c.106-.254.299-.456.512-.462.212-.006.44.19.601.423.162.233.252.496.316.765.065.269.102.535-.005.714a.46.46 0 0 1-.557.174c-.197-.087-.33-.346-.435-.61a2.9 2.9 0 0 1-.207-.844c-.03-.322-.01-.698.13-.901.142-.204.406-.224.624-.121.218.102.383.327.493.596s.16.572.172.872c.013.3-.014.587-.161.753-.148.166-.415.203-.628.096s-.364-.357-.479-.613a3 3 0 0 1-.231-.78c-.043-.272-.052-.554.047-.786.1-.231.308-.404.507-.38.198.025.38.252.5.503s.173.52.198.793c.024.273.018.544-.045.805s-.184.505-.382.591c-.2.087-.473.008-.69-.144-.218-.153-.37-.377-.494-.624a2.7 2.7 0 0 1-.257-.782c-.043-.27-.037-.541.07-.768a.89.89 0 0 1 .564-.468.78.78 0 0 1 .713.144c.191.167.288.458.35.757.063.3.087.6.086.898 0 .298-.027.585-.166.792-.138.206-.387.324-.61.275-.222-.05-.412-.269-.559-.51a2.4 2.4 0 0 1-.306-.782 3 3 0 0 1-.041-.888c.031-.296.11-.57.291-.728a.66.66 0 0 1 .693-.09c.227.104.388.347.525.609.272.521.41 1.084.477 1.678.036.323-.014.7-.157.955a.76.76 0 0 1-.67.384c-.271.004-.548-.118-.785-.303a2.4 2.4 0 0 1-.576-.695 2.8 2.8 0 0 1-.315-.818 3 3 0 0 1-.048-.846c.021-.283.073-.558.213-.776.14-.22.366-.373.617-.445.252-.072.522-.057.762.048s.44.299.61.536c.345.484.507 1.076.615 1.649.055.29.035.59-.017.866-.051.276-.152.522-.344.683-.19.162-.469.232-.76.254s-.59-.005-.847-.121a1.5 1.5 0 0 1-.625-.56 2.3 2.3 0 0 1-.328-.786c-.117-.529-.044-1.095.084-1.645.064-.273.25-.496.446-.688s.429-.338.69-.381c.26-.044.543.019.774.168s.402.384.542.645q.209.392.321.839c.076.296.119.6.119.995s-.044.872-.173 1.214c-.128.342-.338.534-.587.628a1.06 1.06 0 0 1-.778-.017c-.25-.103-.46-.298-.63-.535a2.3 2.3 0 0 1-.362-.807c-.143-.593-.077-1.225.056-1.801.066-.284.286-.5.514-.654a1.28 1.28 0 0 1 .775-.215c.279.012.56.109.787.268.226.158.39.375.51.648.256.57.283 1.215.283 1.794 0 .29-.034.568-.137.826-.102.257-.28.486-.511.626s-.51.185-.782.14a1.33 1.33 0 0 1-.746-.412c-.215-.228-.379-.54-.498-.833-.223-.541-.31-1.108-.355-1.784-.026-.39.045-.878.158-1.23.112-.351.29-.553.515-.671a1.07 1.07 0 0 1 .736-.09q.372.087.663.422c.194.222.352.518.46.804.205.54.216 1.129.18 1.717a2 2 0 0 1-.237.812 1.6 1.6 0 0 1-.56.601 1.4 1.4 0 0 1-.781.212 1.8 1.8 0 0 1-.878-.248c-.284-.163-.535-.405-.776-.693a4.1 4.1 0 0 1-.603-.938q-.21-.481-.16-.905c.034-.282.155-.534.386-.735.23-.202.568-.346.892-.442s.626-.139.957-.153.682.002.957.115c.276.113.466.323.607.58.29.525.337 1.319.344 2.248.004.47-.055.94-.167 1.28-.111.338-.289.534-.527.611-.238.078-.532.033-.772-.109s-.418-.378-.565-.623c-.285-.477-.433-1.024-.514-1.671-.047-.367.006-.824.087-1.174s.217-.583.396-.789.398-.38.646-.473c.25-.094.521-.104.742.009s.383.348.513.626c.27.575.338 1.217.343 1.853.004.337-.043.703-.14 1.002-.099.3-.26.521-.47.677-.209.155-.462.237-.732.231a1.4 1.4 0 0 1-.778-.27c-.229-.167-.4-.402-.538-.65-.271-.488-.395-1.036-.462-1.647-.037-.34.015-.752.132-1.063s.321-.51.555-.64.492-.186.764-.206.551-.002.78.129c.23.13.4.373.526.646.254.55.313 1.327.338 2.218.012.44-.043.858-.135 1.184s-.237.55-.445.691a1.14 1.14 0 0 1-.748.173 1.6 1.6 0 0 1-.775-.292 2.05 2.05 0 0 1-.556-.618 3 3 0 0 1-.321-.772c-.167-.614-.16-1.518-.023-2.474.058-.406.27-.618.483-.773a1.05 1.05 0 0 1 .725-.211c.26.026.518.165.714.377.195.213.318.496.425.839.228.729.295 1.497.29 2.239-.002.39-.052.806-.14 1.141-.089.336-.226.578-.437.76a1.32 1.32 0 0 1-.788.31 1.38 1.38 0 0 1-.862-.262c-.268-.188-.496-.472-.688-.806-.392-.68-.544-1.396-.618-2.026-.078-.664.018-1.342.156-1.926.065-.275.292-.455.516-.582s.481-.182.802-.198c.32-.015.697.012.99.14.292.128.49.356.649.615.317.516.445 1.091.52 1.663.04.311.002.67-.09.97-.094.3-.263.53-.466.722a1.8 1.8 0 0 1-.693.417 1.56 1.56 0 0 1-.803.028c-.271-.06-.53-.19-.786-.4-.257-.21-.501-.496-.69-.767a3 3 0 0 1-.404-.79 2.7 2.7 0 0 1-.147-.856c0-.298.054-.599.202-.857s.389-.464.647-.61c.259-.147.528-.228.833-.258s.635-.008.893.104.432.311.594.588c.35.6.541 1.447.662 2.37.06.454.01.893-.098 1.21s-.299.5-.556.598a1.5 1.5 0 0 1-.875.026 1.85 1.85 0 0 1-.795-.436c-.217-.203-.369-.445-.595-1.098"/><path stroke="#707070" stroke-linecap="round" stroke-linejoin="round" stroke-width=".526" d="M41.186 37.021c-.017-.001-.034-.003-.089.015s-.147.056-.173.128.017.18.088.22.17.009.193-.053c.023-.061-.032-.152-.313-.076M39.509 37.782c0-.003 0-.006-.023-.053a.44.44 0 0 0-.146-.182M39.508 38.742c-.006 0-.012-.001-.032.05s-.052.155.017.35M40.262 40.04l.001.19M41.273 38.561l.202-.011M41.096 40.893c-.004 0-.008-.001-.06.007s-.152.026-.179.081.025.15.09.166c.066.016.144-.05.119-.138M41.096 39.663c-.01 0-.02-.002-.008.046.01.047.042.142.054.14.013-.003.005-.106-.12-.435M42.042 40.315c-.007-.001-.014-.002-.037.044s-.061.139-.038.159c.022.02.107-.035.135-.086M42.658 39.078l.066.055M42.594 37.544c-.011.002-.022.004-.031-.045s-.016-.149-.07-.076M39.788 36.64c0-.002 0-.005.012-.056.012-.05.034-.147.107-.133M42.146 36.061l-.117.06"/><path stroke="#B51A00" stroke-linecap="round" stroke-linejoin="round" stroke-width=".526" d="M41.972 34.511c-.011 0-.023-.002.089-.147.112-.144.346-.433.58-.7.235-.266.462-.503.84-.922M43.777 33.611c.01.002.022.003-.224.202-.246.2-.749.598-1.267 1.008M45.7 34.516c-.022-.002-.044-.004-.216.063a7 7 0 0 0-.82.387c-.327.184-.648.411-.98.646M46.758 35.585c-.05-.004-.1-.01-.403-.042-.302-.033-.855-.094-1.278-.03s-.699.255-1.53.933M47.607 36.892c-.102.01-.605.057-1.466.16-.411.062-.77.142-1.105.252-.336.11-.638.248-1.344.98M47.502 38.004c-.083-.008-.657-.073-1.619-.127a3.5 3.5 0 0 0-1.098.197c-.35.114-.727.264-1.365.739M47.3 39.175c-.083-.008-.423-.143-1.045-.373-.325-.1-.67-.163-1.011-.117s-.668.203-1.39.861M47.127 40.415c-.023-.002-.33-.134-.937-.32-.31-.056-.624-.033-1.05.115-.428.147-.958.418-1.505.697M39.074 35.307c-.011-.001-.022-.002-.142-.111-.119-.109-.346-.325-.628-.55s-.611-.453-1.744-.95M38.61 36.676c-.045-.004-.35-.218-.895-.638-.264-.209-.504-.408-.776-.571-.273-.163-.57-.282-1.623-.161M38.548 36.956c-.02-.002-.04-.003-.188-.085-.148-.08-.426-.241-.73-.354-.304-.114-.627-.175-1.525-.29M39.198 37.736c-.03-.003-.061-.006-.425-.05s-1.061-.131-1.571-.107-.812.162-1.343.656M38.998 38.527l-.257-.024c-.195-.018-.554-.052-.89.006-.337.057-.64.207-1.606.986M39.24 39.586l-.259-.023c-.18-.017-.5-.047-.726.103-.227.15-.35.48-.567 1.503M39.94 40.462c-.062-.005-.401.191-.952.63-.243.24-.411.513-.55.815-.138.302-.24.624-.379 1.296M39.886 41.752c-.01-.013-.02-.026-.15.086s-.38.348-.55.642c-.169.293-.251.637-.397 1.641M40.397 42.957l-.197 2.11M41.377 43.203c.011.001.022.002.11.171.089.17.254.507.491 1.139M39.295 33.324c-.01-.02-.019-.04.072.082.09.122.282.388.472.667.189.28.37.566.663 1.09M30.427 5.704c-.023-.002-.188.322-.45 1.138-.11.49-.17 1.137-.17 1.623.002.486.066.793.132 1.108M31.594 6.216c-.05-.004-.1-.009-.248.123a1.9 1.9 0 0 0-.517.755c-.125.356-.123.791-.115 1.269s.023.984.038 1.506"/><path stroke="#E22400" stroke-linecap="round" stroke-linejoin="round" stroke-width=".526" d="M17.166 10.423c-.061-.006-.417-.08-1.022-.08-.288 0-.505.286-.692.551a2.9 2.9 0 0 0-.43.937c-.097.364-.143.773-.054 1.098s.315.553.463.497c1.105-.413.655-2.16.749-2.435.13-.379-.244 1.472-.487 2.447-.076.307-.418.082-.489.14s.046.368.257.573c.21.204.51.294.543.221s-.212-.312-.307-.594c-.096-.28-.036-.597.059-.614.095-.016.222.276.218.28s-.142-.29-.17-.28c-.03.008.056.328.242.572.185.245.468.404 1.161.64"/><path stroke="#E22400" stroke-linecap="round" stroke-linejoin="round" stroke-width=".526" d="M15.737 13.331c.002-.019.193.246.376.53.006.009-.218-.26-.187-.301.207-.277.887.487 1.157.648a2.3 2.3 0 0 1-.626-.25 2 2 0 0 1-.667-.66 2.2 2.2 0 0 1-.335-.885 1.54 1.54 0 0 1 .143-.95c.335-.636.959-1.084 1.183-1.308.273-.272-.644.9-.957 1.475-.154.283-.091.638.011.932s.296.541.551.713.568.26.562.313-.338.064-.385.18.203.333.556.472c.354.14.803.193.89.165s-.203-.138-.204-.12c0 .02.297.172.298.17 0-.004-.305-.166-.608-.186s-.596.11-.596.23c0 .122.301.232.628.274.326.04.669.01.742-.123.074-.134-.131-.37-.422-.447-.64-.17-1.333.222-1.798.24-.203.007-.23-.43-.225-1.05s.069-1.523.21-2.102c.143-.579.36-.806.601-1.021.24-.215.497-.41 1.176-.666M35.28 19.847c-.012-.001-.023-.002-.138.117a5 5 0 0 0-.516.624c-.182.266-.321.552-1.112 1.04M25.532 22.92c-.021-.021-.292-.222-.845-.483-1.155-.545-2.4.038-3.13-.144-.325-.081-.45-.423-.36-.594.09-.172.427-.234.769-.23.341.004.677.076.898.263s.317.487.514.546.493-.132 1.037-.526"/><path stroke="#E22400" stroke-linecap="round" stroke-linejoin="round" stroke-width=".526" d="M24.1 22.1c.005-.042-.199-.3-.636-.751-.22-.228-.484-.405-.71-.366-.225.038-.416.311-.373.382s.325-.068.41.019-.038.405.277 1.029M32.895 20.604c.285.005 1.209-.16 1.631-.268.16-.04.159.406.277.47.118.062.344-.155.429-.105s.024.374.092.312"/><path stroke="#E22400" stroke-linecap="round" stroke-linejoin="round" stroke-width=".526" d="M36.595 20.157c-.03-.013-.06-.025-.22.032s-.45.184-.641.427c-.191.244-.275.599-.45.686-.174.088-.437-.102-.618-.044-.18.057-.271.369-.154.483.118.115.447.022.702-.163s.426-.46.372-.516-.34.114-.577.338-.416.496-.59.784-.336.583-.591 1.104"/><path stroke="#4E7A27" stroke-linecap="round" stroke-linejoin="round" stroke-width=".788" d="M24.521 24.022c-.022-.002-.233.267-.552.856-.743 1.376-1.033 3.964-1.563 5.703-.424 1.39-.662 3.004-.957 4.782-.07.418-.091.809-.589 6.101-.498 5.293-1.456 15.477-1.987 21.19-.745 8.006-.778 9.67-.938 12.083-.04 1.565-.041 2.921.114 4.45.075.384.187.746.709 1.789M19.316 52l.068.006M19.237 52.56c.006-.423-.213-1.904-.575-5.23-.12-1.102-.267-1.785-.457-2.443-.192-.663-.542-1.248-.937-1.774-.202-.27-.447-.512-.677-.527s-.448.213-.491.487c-.203 1.261.71 2.165.66 2.553-.017.14-.408-.07-.624-.352-.936-1.222-.86-2.712-1.346-4.018-.553-1.486-1.43-2.174-1.91-2.584-.243-.207-.562-.313-.866-.421-.305-.108-.607-.189-.772-.06-.166.127-.186.467-.123.793.256 1.337 1.185 2.446 1.767 3.6.142.283.115.615-.004.686-.12.07-.381-.11-.635-.473-1.166-1.664-1.58-3.17-2.213-4.519-.296-.63-.541-1.24-.886-1.773a2.3 2.3 0 0 0-.648-.667c-.257-.172-.56-.272-.734-.165-.174.106-.212.423-.154.748.244 1.368 1.092 2.49 1.547 3.736.234.64.334 1.306.417 1.939.041.318.071.632-.071.783-.143.152-.46.132-.72-.006-.53-.282-.865-.926-1.337-1.402-.234-.235-.554-.349-.877-.427a2.6 2.6 0 0 0-1-.04 5.3 5.3 0 0 0-1.778.647c-.145.087.176.364.472.513 1.235.623 2.644.763 3.858 1.357.601.294 1.076.81 1.518 1.325.22.255.377.54.343.78-.035.238-.28.432-.563.533-.568.203-1.231.18-1.81.417-.286.117-.463.414-.601.695s-.209.584-.262.926c-.054.34-.088.71.059.916.146.206.475.236.78.177 1.215-.237 1.877-1.127 2.449-1.396.284-.134.612-.123.93-.094s.63.11.911.251.521.34.693.59c.171.251.267.549.194.799-.154.525-1.134.947-2.208 1.714-.263.188-.395.493-.46.786-.064.293-.02.607.158.81.179.203.492.285.799.247 1.286-.16 2.199-1.397 3.317-1.996.28-.15.596-.218 1.048-.245s1.046.019 1.486.148c.44.13.71.342.95.585.475.48.8 1.098 1.034 1.73.109.63.131 1.282.12 1.962-.01.35-.033.711-.056 1.083"/><path stroke="#4E7A27" stroke-linecap="round" stroke-linejoin="round" stroke-width=".788" d="M34.72 40.703c-.252.183-1.457 1.279-2.418 2.524-1.146 1.485-2.325 3.501-3.153 5.212-.709 1.465-1.439 4.135-2.385 6.34-.797 1.855-2.017 3.902-2.968 5.906-.98 2.062-1.727 3.471-2.555 5.1-.799 1.57-1.419 4.287-1.768 6.126-.268 1.413-.453 2.737-.86 6.745-.104 1.945-.07 3.045.014 3.825.049.373.111.698.237 1.383"/><path stroke="#4E7A27" stroke-linecap="round" stroke-linejoin="round" stroke-width=".788" d="M27.4 53.726c.001-.02.081-.335.102-1.002.025-.813-.59-1.487-.823-2.086-.235-.605-.24-1.293-.195-1.966.042-.653.317-1.247.583-1.849.138-.314.15-.695.06-.993-.179-.58-1.126-1.04-2.027-1.834-.21-.186-.055-.586.046-.896.2-.617.517-1.183.703-1.812a1.9 1.9 0 0 0 .02-1.032c-.09-.314-.307-.55-.563-.728-.257-.177-.547-.288-.754-.495s-.323-.506-.348-.922c-.025-.415.043-.938-.073-1.246s-.417-.388-.638-.28c-.221.11-.353.407-.399.718-.185 1.254.162 2.323-.001 3.084-.076.355-.333.591-.46.878a1.63 1.63 0 0 0-.121.913c.097.624.405 1.212.463 1.82.03.302-.128.593-.094.885.07.613.645 1.144 1.073 1.705.402.527.471 1.227.554 1.88.081.643.02 1.298.074 1.93.054.634.476 1.195.642 1.789.334 1.191.255 2.171.415 2.883a5.3 5.3 0 0 1-.08 1.392c-.08.425-.203.714-.358 1.322M24.331 60.738c.26-.233 1.423-.815 2.61-1.368.288-.135.45-.433.578-.72.259-.582.302-1.25.504-1.831.1-.291.333-.518.528-.515s.379.259.631.358c.252.1.567.035.83-.123.527-.316.903-.868 1.418-1.162.254-.144.596-.047.84.105.245.153.409.418.646.507.238.088.545-.009.788-.19.487-.363.793-1.007 1.22-1.551.208-.266.458-.46.688-.448s.446.249.605.52c.16.273.255.572.46.772s.517.292.83.306c.315.015.621-.05.665.03.171.313-.541.828-.744 1.445-.106.321-.129.684-.202 1.02s-.175.638-.375.728-.497-.04-.742-.236-.43-.45-.675-.621c-.245-.172-.546-.253-.863-.278s-.64.007-.916.148c-.562.287-.97.85-1.495 1.185-.518.331-1.234.39-1.834.735-.556.32-.88.948-1.454 1.29-.31.185-.796.077-1.157.153-1.269.267-2.217 1.34-3.411 1.903-.652.123-1.304.23-1.84.483-.229.177-.37.454-.535.958"/><path stroke="#4E7A27" stroke-linecap="round" stroke-linejoin="round" stroke-width=".788" d="M19.382 56.046c.118-.275.772-1.489 1.353-2.855.437-1.029.223-2.068.307-2.495.034-.167.431-.011.629.194s.282.511.484.632c.45.268 1.15-.145 1.599-.163.44-.016.334.985.561 1.482.108.236-.147.532-.41.657-.261.124-.612.091-.93.156-.317.064-.59.225-.748.488-.157.262-.19.62-.33.907-.926.863-1.721 1.444-2.111 2.028-.172.325-.292.708-.544 1.842M24.945 39.672c-.235-.25-.967-1.338-1.529-2.232-.07-.112-.241.305-.266.617-.102 1.29.534 2.235.624 2.854.09.611-.29 1.213-.387 1.51-.01.029.222-.276.335-.58.223-.598.173-1.27.235-1.607.062-.339.581.768.919 1.168.157.187-.045.521-.251.734s-.496.34-.692.567-.287.55-.23.861c.058.31.267.6.5.853s.483.461.483.458c.017-.34-.707-.707-.956-.914-.062-.052-.006.407.11.734.115.327.285.612.496.884.21.271.457.52.74.69.284.17.596.25.597.294 0 .043-.32.044-.599-.07-.567-.23-.958-.804-1.146-1.076-.182-.264.848.444 1.113.627.257.177-.821-.545-1.413-.88-.29-.166-.585-.275-.665-.196-.079.079.06.361.23.629.678 1.068 1.532 1.607 1.788 1.777.317.21-.653-.823-1.154-1.197a3.6 3.6 0 0 0-.835-.442c-.298-.117-.61-.199-.64-.15-.519.819 1.695 1.47 2.45 2.502.767 1.047.546 2.224.675 2.86.064.318.213.604.345.595.133-.009.266-.326.293-.664.119-1.462-.282-2.626-.243-3.295.02-.33.159-.626.343-.872s.44-.43.606-.676c.167-.246.238-.55.146-.61s-.349.133-.512.395c-.966 1.558-.543 4.225-.524 5.607.011.337.035.65.052.972.018.322.027.645.061 1.075"/><path stroke="#4E7A27" stroke-linecap="round" stroke-linejoin="round" stroke-width=".788" d="M25.834 45.582c-.002.021-.004.043-.01-.108-.006-.15-.015-.473-.144-.532-.128-.059-.375.156-1.047.463M35.379 55.463c.002-.02.155-.315.306-.596.003-.005-.167.313-.385.572s-.487.46-.782.586c-.58.249-1.3.183-1.98.238-.621.05-.987.765-1.3.97-.099.064-.133-.36-.282-.43s-.424.12-.583.063c-.159-.059-.191-.372-.283-.39-.355-.07-.57.858-.984 1.263-.189.185-.541.03-.713-.168s-.204-.511-.247-.51c-.342.017-.205 1.25-.293 1.975-.018.143-.047-.18-.13-.188-1.147-.107-1.773 2.048-2.898 2.894a5 5 0 0 1-.577.366c.879-.687 2.353-1.577 3.528-2.537a10 10 0 0 1 1.429-.959c.292-.158-.784.645-1.117.857-.786.499 1.81.49 2.526.775.425.17 1.047.171 1.507.153s.759-.114.781-.248c.023-.133-.24-.302-.596-.41-1.519-.457-2.56-.147-2.941-.228-.102-.022.197-.286.533-.366.337-.08.757-.041.804-.125.2-.36-.907-.694-1.136-.973-.242-.295 1.059.037 1.722.054 1.61.043 2.893-1.207 3.415-1.495 1.034-.571-2.663.668-2.998.776-1.154.37 2.846-1.153 4.202-1.514.309-.083.618-.137.632-.07.076.377-.874.614-1.17.807.006.055.329.022.657-.006.327-.028.65-.05 1.327-.042"/><path stroke="#4E7A27" stroke-linecap="round" stroke-linejoin="round" stroke-width=".788" d="M35.551 56.39c.27.088 1.464.513 2.433.866.103.038-.254.256-.563.359-1.248.416-2.974.086-4.535.105-.728.008-1.439.168-1.799.303-1.91.715 5.143.824 5.698 1.114.275.144.613.112.707-.024.095-.136-.044-.418-.306-.576-.641-.184-2.07-.285-3.803-.44a8 8 0 0 1-1.478-.29"/><path stroke="#4E7A27" stroke-linecap="round" stroke-linejoin="round" stroke-width=".788" d="M36.09 56.601c.205-.187 1.329-.834 2.24-1.233.045-.02-.223.274-.54.476a4.8 4.8 0 0 1-1.046.48c-.352.115-.667.18-.711.11-.617-.97 1.999-1.49 2.295-1.647.037-.02-.176.267-.426.485a8.3 8.3 0 0 1-1.852 1.044c-.39.147-.847.29-1.74.587M8.26 41.507c.002-.023-.237-.233-.76-.485-.258-.126-.6.04-.656.208s.157.404.431.546c.274.141.602.182.615.152s-.297-.131-.734-.214c-.436-.082-.99-.143-1.173-.042-.184.102.019.369.294.558 1.116.768 2.185.702 2.48.815.898.343-1.997-1.075-3.008-1.31-.093-.02.19.342.476.537 1.155.787 2.55 1.178 3.732 1.878.295.174.565.39.78.345.215-.044.357-.341.356-.744-.008-2.162-1.112-4.19-1.56-5.135-.045-.095-.205.327-.231.655-.052.654.292 1.59.642 2.316.082.17.19-.226.104-.808-.408-2.759-1.009-4.037-1.19-4.303-1.376-2.015 1.328 6.394 1.724 7.263.104.228.228-.109.144-.64-.386-2.455-1.1-3.758-1.378-4.617-.063-.193-.096.16-.066.508.17 1.98 1.253 4.981 1.863 6.128.03.055.016-.332-.122-.685-.3-.766-.808-1.417-1.1-1.656-.08-.066-.065.443.023.835.176.785.607 1.508 1.069 2.147.22.306.518.497.765.46s.459-.327.54-.675c.17-.727-.117-1.474-.135-1.812-.06-1.136 1.354 1.74 1.645 1.93.082.054.047-.378-.109-.822-.67-1.901-1.231-2.835-1.281-3.068-.231-1.063 1.107 2.058 1.4 2.68.145.308.284.6.009.31-1.045-1.105-1.898-2.328-2.198-2.492-.103-.057-.03.5.08.88.213.726.643 1.398.805 1.703.288.54-.912-1.478-1.388-1.957-.098-.097-.047.36.114.768.16.41.391.823.69 1.275.299.453.659.93 1.83 1.877"/><path stroke="#4E7A27" stroke-linecap="round" stroke-linejoin="round" stroke-width=".788" d="M12.917 45.037c-.316.057-1.279.039-1.918.015-.629-.023-1.216.447-1.8.778-.296.168-.495.483-.459.563s.337-.047.33-.127-.334-.11-.608 0c-.273.108-.484.358-.618.644-.133.287-.182.602-.038.729.143.126.481.054.782-.075.584-.25 1.09-.691 1.6-1.113.252-.209.414-.494.338-.64-.077-.146-.418-.166-.744-.114a2.3 2.3 0 0 0-.9.363 2.2 2.2 0 0 0-.677.695c-.163.273-.245.576-.121.732.124.155.455.155.81.006.357-.149.727-.446 1.03-.712.304-.267.53-.494.481-.657s-.38-.257-.704-.205c-.672.107-1.22.68-1.741 1.152-.262.238-.472.52-.437.725.036.205.336.336.618.312s.537-.207.801-.455c.559-.524 1.001-1.122 1.235-1.643.111-.248-.106-.552-.339-.64-.233-.089-.555.026-.817.237-.262.21-.453.515-.586.824-.134.308-.204.612-.083.799.12.186.435.247.756.19 1.464-.264 2.693-1.362 3.647-1.656.084-.026-.287-.219-.56-.174s-.51.271-.595.546-.01.592.147.86c.158.267.397.474.674.653.276.179.583.322.865.289a.75.75 0 0 0 .615-.534c.086-.285.004-.635-.125-.947a3 3 0 0 0-.512-.825c-.212-.245-.458-.463-.596-.417s-.159.365-.071.698c.184.705.752 1.376 1.281 2.026.249.306.512.514.625.456.114-.059.084-.403-.016-.728-.199-.645-.777-1.44-1.21-2.083-.586-.873 1.462 2.13 1.927 2.462.192.137.464-.217.542-.499.077-.282-.007-.59.027-.58.034.009.188.345.644 1.157"/><path stroke="#4E7A27" stroke-linecap="round" stroke-linejoin="round" stroke-width=".788" d="M16.21 46.036c-.005.05-.01.1-.178.075-.17-.026-.502-.13-.868-.603-.925-1.201-1.287-2.516-1.334-2.933-.013-.122.403.089.674.36.564.563.848 1.296.92 1.606.434 1.87-2.747-4.084-3.144-4.904-.604-1.246 2.04 3.511 2.586 4.657.778 1.633-2.62-3.837-2.725-4.26-.029-.114.439.093.787.407.756.68 1.169 1.487 1.466 2.066.155.303.28.642.217.678-.062.036-.326-.236-.61-.67-1.266-1.934-1.488-3.257-1.55-3.603-.247-1.37 2.14 4.376 3.052 6.536.117.277-.377-1.013-.435-1.423-.19-1.341 1.938 3.546 2.353 4.693.37 1.024-.508-2.093-.47-2.518.009-.112.316.158.48.441.666 1.147.612 2.183.692 2.45.126.417-.31-1.963-.637-3.506-.09-.418.055-.111.178.307.274.929.437 1.873.529 2.281.302 1.352-.512-2.855-.49-2.817.19.322.316 1.432.354 1.695.048.33-.491-1.54-.779-2.32-.488-1.325.48 3.367.495 3.714.017.42-.369-1.241-.418-1.511-.19-1.025.523 2.561.43 2.926-.441 1.76-1.451-3.362-1.833-3.971-.19-.302-.427-.549-.598-.526-.172.022-.285.331-.202.695.19.833 1.018 1.641 1.429 2.094 1.119 1.236-1.97-2.692-2.31-2.98-1.043-.88 1.816 2.758 2.178 3.228.217.283-1.089-1.703-2.088-3.052-.594-.801 1.92 2.39 2.94 4.277.248.459.42.877.413.93-.183 1.364-1.361-2.686-1.468-2.886-.287-.532.883 2.41 1.622 4.234.2.495.138.073.015-.41-.261-1.03-.522-1.931-.603-2.285-.079-.344.323 1.307.403 1.784.18 1.074-.906-2.224-1.281-2.699-.175-.22-.543-.158-.844-.082-.604.153-1.24.552-1.928.91-.607.316-1.1.759-1.372 1.135-.114.156.256.393.531.422s.556-.122.857-.267.614-.282.597-.374-.376-.135-.747-.102c-.754.066-1.483.429-2.172.792-.339.18-.632.39-.628.524s.322.194.696.183c.8-.025 1.656-.353 2.449-.706.374-.166.653-.385.892-.64.24-.256.423-.56.372-.814-.052-.254-.343-.447-.652-.503-.31-.057-.63.028-1.047.178a9 9 0 0 0-1.313.58c-.39.222-.65.448-.662.668s.229.428.53.53c.3.104.651.096 1 .004.35-.093.687-.268.986-.486q.449-.327.75-.77c.201-.296.344-.624.268-.843-.076-.22-.376-.32-.681-.24-.306.078-.608.339-.865.614s-.46.557-.6.854-.21.6-.076.762c.135.161.476.172.791.071s.593-.313.837-.283.446.308.654.595M21.115 54.894c.044-.351.316-1.245.42-1.457.261-.525-1.045.945-1.37 1.105-.104.051-.07-.396.057-.695.126-.299.346-.547.595-.756.492-.409 1.08-.704 1.434-.815.097-.03-.039.36-.257.682-.473.697-1.04 1.25-1.392 1.775-.177.264-.293.56-.226.606.336-.154 1.076-.94 2-1.945.248-.23.517-.442.536-.62"/><path stroke="#4E7A27" stroke-linecap="round" stroke-linejoin="round" stroke-width=".788" d="M16.946 48.206c-.04-.004.011.32-.043.786-.022.185-.448.079-.494.188-.046.11.195.39.335.69.14.302.173.615.131.631-.04.017-.157-.273-.09-.302.069-.03.324.211.594.41.269.2.544.35.929.514"/><path stroke="#4E7A27" stroke-linecap="round" stroke-linejoin="round" stroke-width=".788" d="M17.479 48.255c-.002.02-.232.258-.74.661-.258.205-.602.29-.89.446-.29.155-.535.35-.388.516.499.568 1.566.542 1.9.573.073.007-.253-.314-.561-.486s-.643-.263-.673-.22.253.224.551.403.603.352 1.376.981M24.584 43.176c-.02.008-.04.016-.188-.06s-.422-.236-.482-.471c-.135-.533.464-1.146.6-1.583.046-.149-.37-.133-.38-.185-.012-.052.288-.169.448-.388.16-.22.17-.539.221-.544.053-.005.146.315.352.843M25.228 40.015a2 2 0 0 1-.25-.105c-.17-.078-.465-.221-.693-.43-.228-.21-.38-.481-.375-1.124M30.703 57.629c-.03-.003-.061-.006-.153-.148-.09-.142-.242-.424-.205-.683s.266-.487.541-.575c.276-.087.59-.027.95.01M28.009 52.212c-.045.058-.286.316-.662.827-.159.284-.251.617-.377 1.07a26 26 0 0 0-.482 2.006"/><path stroke="#4E7A27" stroke-linecap="round" stroke-linejoin="round" stroke-width=".788" d="M27.538 52.857c-.02-.002-.04-.004-.207.017-.168.022-.484.067-.687.256s-.285.52-.384 1.021"/><path stroke="#4E7A27" stroke-linecap="round" stroke-linejoin="round" stroke-width=".788" d="M27.433 51.72c-.045-.004-.258.255-.584.906-.137.39-.216.9-.301 1.374s-.176.9-.268 1.338M37.229 56.543c.001-.02.171-.304.589-.783.21-.242.571-.328.651-.25s-.092.363-.336.52c-1.029.663-2.2.287-2.523.428-.053.023.316.088.646.042 1.377-.193 2.254-.838 2.711-.83.19.004.17.417-.014.617-1.287.404-2.611.53-3.981.773-.325.1-.608.24-.899.384M18.391 50.497a3.7 3.7 0 0 1-.67-.181c-.054-.02.317-.11.48-.303s.163-.524.04-.593c-.124-.068-.37.137-.43.645M16.505 49.542c-.215-.258-1-.979-1.484-1.355-.067-.173.226-.312.533-.333.307-.02.617.08 1.617.561M17.58 45.785l-.15-.172c-.112-.13-.32-.368-.524-.618-.203-.251-.396-.507-.906-.8"/><path stroke="#4E7A27" stroke-linecap="round" stroke-linejoin="round" stroke-width=".788" d="M15.371 47.932c-.039-.004-.297-.225-.82-.53-1.162-.678-2.498-.133-3.108-.32-.294-.091-.465-.39-.412-.48.053-.092.358-.022.686.003s.67.004 1.832.058M16.335 45.703c-.011-.001-.022-.002-.16-.093-.138-.09-.402-.272-.457-.507-.055-.236.106-.522.303-.777.197-.256.425-.473.691-.632.267-.16.565-.254.767-.155.201.1.297.398.353.707.056.31.069.62.091 1.853"/><path stroke="#4E7A27" stroke-linecap="round" stroke-linejoin="round" stroke-width=".788" d="M16.18 44.972c-.021-.002-.077-.318-.023-.964.028-.345.336-.673.567-1.01s.446-.657.671-.703.452.194.617.471c.26.585.405 1.269.457 2.098.005.461-.035 1.006-.274 2.051"/><path stroke="#E22400" stroke-linecap="round" stroke-linejoin="round" stroke-width="1.051" d="M22.17 20.016c-.005 0-.01 0-.003.022a.4.4 0 0 0 .053.107c.11.157.33.277.54.396.25.143.597.218.912.336.24.09.417.21.635.277.21.066.503.075.768.111.357.05.676.127.972.186.35.069.788.056 1.074.025.24-.027.532-.087.844-.118a8 8 0 0 1 .619-.039c.188 0 .337-.002.439-.006.05-.002.099-.005.194-.022M29.636 20.094c.037-.029.294-.159.532-.247.2-.085.388-.166.493-.19.051-.01.098-.015.244-.028M29.256 4.456c-.055-.015-.22-.11-.456-.206-.45-.185-.747-.141-1.105-.208a.7.7 0 0 0-.169-.018c-.047.004-.092.02-.116.05a.11.11 0 0 0-.009.118c.02.039.06.07.208.099.71.14.93.088 1.207.116.235.024.466.141.67.187.187.042.38-.036.596-.07.1-.014.2.01.29.04.044.014.072.054.067.081s-.048.05-.092.062c-.045.01-.09.01-.137.014a.6.6 0 0 0-.215.06M35.25 4.475c0-.004-.001-.007.02-.024a.3.3 0 0 1 .109-.063q.07-.019.164.022c.285.116.452.264.644.392.263.175.56.335.755.462.084.055.117.164.153.202.011.012.027-.061.03-.116.013-.206-.003-.364.026-.446.01-.029.062.005.104.048.095.097.159.22.207.323.024.05.037.099.02.112-.155.117-.497-.181-1.21-.258-.46-.05-.733.048-1.236.105-.324.037-.538.003-.78.032s-.37.134-.5.151c-.164.021-.307-.034-.396-.06-.04-.012-.078.03-.122.096-.213.313-.391.585-.532.768-.06.078-.06.185-.068.228-.01.05.05-.146.077-.191.007.001 0 .052-.015.101s-.035.098-.094.258M17.99 9.205a2.4 2.4 0 0 0-.506.013c-.302.048-.394.663-.588 1.076-.123.26-.32.495-.385.705-.068.22-.07.485-.143.715-.067.217-.044.432-.036.64.002.05.032.088.052.086s.038-.047.052-.117c.031-.163.063-.834.125-1.725.022-.317.057-.361.085-.404q.045-.063.08-.127c.023-.043.037-.087.022-.104s-.061-.006-.095.021a.27.27 0 0 0-.075.126c-.043.122-.133.628-.257 1.369-.065.708-.007.965.025 1.236 0 .103-.012.25-.011.424M15.603 11.716a.3.3 0 0 0-.036-.094c-.074-.13-.098.39-.176 1.13-.026.247.034.391.066.505.103.185.226.314.344.419.057.05.107.095.245.195"/><path stroke="#E22400" stroke-linecap="round" stroke-linejoin="round" stroke-width="1.051" d="M15.88 13.501a.4.4 0 0 0-.13.07c-.032.025-.02.084-.003.134.068.205.313.407.547.621.169.155.366.288.548.384.213.113 1.052.154 1.575.177a1 1 0 0 0 .145-.048c.047-.019.094-.039.161-.062"/><path stroke="#4E7A27" stroke-linecap="round" stroke-linejoin="round" stroke-width="1.051" d="M24.415 41.592c-.034-.004-.127-.03-.264-.027-.153.002-.222.915-.294 1.988-.023.339.018.263.064-.063.045-.327.103-.902.121-1.067.075-.698 0 1.523.03 1.782.014.115.034.193.07.2.036.005.09-.064.13-.243.2-.904.035-1.509-.02-1.855-.123-.768.355 2.306.397 2.39s-.061-.72-.24-1.492c-.053-.232-.055-.134-.01.093.116.586.403 1.51.686 2.325.088.257.112.176.105.068-.036-.565-.238-.99-.281-1.082-.048-.103.188.803.438 1.637.078.259.12.164.13.073.022-.179.005-.537-.008-.75-.063-1.093-.041 1.787-.014 2.028.013.107.034.18.062.034.096-.51.111-1.072.114-1.245.002-.2-.057.88-.057 1.554.01.085.022-.532.025-.872 0 .166-.008 1.018.002 1.71"/><path stroke="#4E7A27" stroke-linecap="round" stroke-linejoin="round" stroke-width="1.051" d="M24.066 43.35c-.007-.04-.044-.153-.098-.338-.164-.564.08-1.427.17-1.837.02-.092.041-.164.038-.15-.077.303-.196.68-.288 1.202-.022.124-.03.225-.035.107-.02-.457-.017-.88-.066-.953-.437-.643-.264 2.06-.215 2.182.019.048.118 0 .166-.104.3-.657-.015-1.326-.052-1.437-.235-.688.092 2.017.13 2.137.01.026.058-.073.059-.308a6 6 0 0 0-.129-1.307c-.111-.43.048 1.24.096 1.532.02.124.046.197.068.157.413-.778.222-2.124.426-2.74.075-.229.187-.37.29-.487.053-.058.13-.087.18-.067s.077.097.085.188c.044.479-.196.973-.218 1.087-.125.664.531-1.185.62-1.409.19-.476-.515 1.208-.614 1.406-.045.09-.085.155-.095.074-.01-.082.01-.313.018-.389.005.01-.066.393-.185.962-.052.275-.087.522-.123.776M29.149 57.38c-.007-.003-.014-.006-.047.023a.6.6 0 0 0-.128.165c-.073.15-.082.335-.144.445-.023.04-.1-.023-.125-.115a.84.84 0 0 1 .053-.513c.034-.078-.022.248-.063.407-.02.079-.042.154-.075.152s-.074-.083-.088-.24.003-.385.033-.46.071.011.105.147c.078.315.091.586.091.668 0 .267-.052-.646-.017-.82.007-.037.05.053.048.285a5.8 5.8 0 0 1-.15 1.291c-.05.19-.135.372-.232.537-.047.079-.11.131-.155.122s-.074-.087-.073-.17c.005-.416.36-.807.604-1.172.057-.085.114-.136.127-.117s-.017.113-.08.223c-.143.244-.454.558-.695.837-.543.627 1.777-1.578 1.881-1.63.076-.039-.25.445-.55.864-.09.127.001.118.086.056.196-.143.398-.445.576-.656.036-.042-.34.644-.814 1.381-.15.233-.077.2.017.126.425-.33.59-.551.64-.647.011-.023-.1.01-.242.12-.358.279-.74.68-.998.948-.072.076.023.069.1.043-.402.214-1.746.876-1.865.895-.042-.02-.043-.102-.045-.187M35.24 56.006c-.005 0-.02-.08-.016-.242.01-.365.331-.578.38-.686.096-.212-.366.305-.443.36-.07.048.093-.32.192-.513.127-.248-.261.604-.263.693-.007.29.496-.303.66-.386.08-.036.155-.062.183-.038.028.025.009.1.005.322M36.089 57.566c-.005-.001-.01-.001.017-.025a.5.5 0 0 1 .19-.098c.1-.027.238-.034.288-.003.05.03.009.098.028.14.019.04.1.053.1.06.001.008-.081.01-.269.063M15.706 48.756a1 1 0 0 0-.12-.272c-.037-.061-.125-.061-.384.118-.258.18-.699.55-.901.699s-.152.064-.042-.043c.26-.252.563-.43.679-.497.474-.272-.98.655-1.068.684-.236.076.023-.494-.02-.661-.021-.082-.072-.148-.124-.216a1 1 0 0 0-.175-.182c-.065-.049-.137-.08-.196-.062-.058.017-.102.085-.098.15s.055.124.115.174c.059.051.124.092.184.133"/></svg>