<svg width="43" height="87" viewBox="0 0 43 87" fill="none" xmlns="http://www.w3.org/2000/svg">
<path d="M28.4492 13.4883L26.9695 13.5409" stroke="#FDC700" stroke-width="1.15817" stroke-linecap="round" stroke-linejoin="round"/>
<path d="M15.9062 27.043L14.4265 27.0956" stroke="#FDC700" stroke-width="1.15817" stroke-linecap="round" stroke-linejoin="round"/>
<path d="M26.8921 12.2701C26.9313 12.2687 26.9705 12.2673 27.1163 12.0848C27.262 11.9023 27.5132 11.5387 27.6328 11.0752C27.7523 10.6117 27.7327 10.0594 27.6741 9.56698C27.4183 7.41601 26.0285 4.66296 24.9667 2.93501C24.4686 2.12434 23.6812 1.56239 22.9342 1.13237C22.5661 0.920446 22.1533 0.849883 21.7497 0.757076C21.3461 0.664269 20.9471 0.584223 20.7567 0.766896C20.5662 0.949569 20.5964 1.39739 20.7838 2.04234C21.6558 5.04466 23.1735 7.34713 25.3058 10.1994C25.7699 10.7933 26.032 11.1387 26.2601 11.5241C26.4882 11.9094 26.6742 12.3244 26.9361 13.5086" stroke="#FDC700" stroke-width="1.15817" stroke-linecap="round" stroke-linejoin="round"/>
<path d="M14.351 25.8248C14.3903 25.8234 14.4295 25.822 14.5752 25.6395C14.721 25.457 14.9722 25.0934 15.0917 24.6299C15.2113 24.1664 15.1916 23.6141 15.1331 23.1217C14.8773 20.9707 13.4875 18.2177 12.4257 16.4897C11.9276 15.679 11.1401 15.1171 10.3932 14.6871C10.0251 14.4751 9.61229 14.4046 9.20868 14.3118C8.80507 14.219 8.40607 14.1389 8.21564 14.3216C8.0252 14.5043 8.05541 14.9521 8.24274 15.597C9.1148 18.5994 10.6325 20.9018 12.7648 23.7541C13.2289 24.348 13.491 24.6934 13.7191 25.0787C13.9472 25.4641 14.1332 25.8791 14.3951 27.0632" stroke="#FDC700" stroke-width="1.15817" stroke-linecap="round" stroke-linejoin="round"/>
<path d="M26.1632 13.0879C26.2024 13.0865 26.2416 13.0851 26.2866 12.8802C26.3317 12.6752 26.3814 12.2667 26.1952 11.8207C25.2802 9.62931 22.991 8.42568 21.1629 7.01573C20.4011 6.42824 19.5964 6.12833 18.7944 5.91908C18.3852 5.8123 17.9463 5.81564 17.5204 5.81655C17.0945 5.81746 16.6886 5.8443 16.4137 6.06384C16.1388 6.28338 16.0071 6.69479 15.9663 7.11658C15.9256 7.53836 15.9798 7.95804 16.1323 8.36697C16.2849 8.7759 16.5341 9.16137 16.8452 9.47868C17.1563 9.79599 17.5216 10.0335 18.0484 10.2417C20.4918 11.2078 22.7497 11.5225 24.497 12.3357C25.4025 12.7571 26.2114 13.4408 26.9709 14.1558C27.3256 14.5305 27.6182 14.9293 27.8209 15.3424C28.0236 15.7556 28.1276 16.171 28.2348 16.599" stroke="#FDC700" stroke-width="1.15817" stroke-linecap="round" stroke-linejoin="round"/>
<path d="M13.6222 26.6426C13.6614 26.6412 13.7006 26.6398 13.7456 26.4348C13.7907 26.2299 13.8404 25.8214 13.6542 25.3754C12.7392 23.184 10.45 21.9804 8.62186 20.5704C7.86013 19.9829 7.05534 19.683 6.25339 19.4738C5.84416 19.367 5.40524 19.3703 4.97938 19.3712C4.55353 19.3721 4.14763 19.399 3.87269 19.6185C3.59775 19.8381 3.46607 20.2495 3.42532 20.6713C3.38458 21.093 3.43877 21.5127 3.59132 21.9217C3.74387 22.3306 3.99313 22.7161 4.30421 23.0334C4.61528 23.3507 4.98062 23.5882 5.50736 23.7964C7.95078 24.7625 10.2087 25.0772 11.956 25.8903C12.8615 26.3118 13.6704 26.9955 14.4298 27.7105C14.7846 28.0851 15.0772 28.4839 15.2799 28.8971C15.4826 29.3103 15.5866 29.7257 15.6938 30.1537" stroke="#FDC700" stroke-width="1.15817" stroke-linecap="round" stroke-linejoin="round"/>
<path d="M28.3069 14.0493C28.4233 13.5987 28.4552 9.40269 28.5725 6.30693C28.6242 4.94112 29.2088 3.59928 29.6456 2.53456C29.8452 2.04794 30.0909 1.7101 30.4143 1.47024C30.7377 1.23038 31.1545 1.1089 31.5558 1.12525C31.9571 1.14159 32.3303 1.29944 32.649 1.57342C32.9677 1.8474 33.2205 2.23273 33.3785 2.6609C33.5366 3.08906 33.5922 3.54837 33.6091 4.00861C33.6261 4.46885 33.6028 4.91609 33.4928 5.35334C31.8995 8.31343 29.3376 12.4126 28.6805 13.6676C28.3811 14.2402 28.1505 14.6824 27.05 15.8075" stroke="#FDC700" stroke-width="1.15817" stroke-linecap="round" stroke-linejoin="round"/>
<path d="M15.7639 27.604C15.8804 27.1534 15.9122 22.9574 16.0295 19.8616C16.0812 18.4958 16.6658 17.154 17.1026 16.0892C17.3022 15.6026 17.5479 15.2648 17.8713 15.0249C18.1947 14.7851 18.6115 14.6636 19.0128 14.6799C19.4141 14.6963 19.7873 14.8541 20.106 15.1281C20.4247 15.4021 20.6775 15.7874 20.8356 16.2156C20.9936 16.6437 21.0492 17.1031 21.0662 17.5633C21.0831 18.0235 21.0598 18.4708 20.9499 18.908C19.3566 21.8681 16.7946 25.9673 16.1376 27.2223C15.8381 27.7949 15.6076 28.2371 14.5071 29.3622" stroke="#FDC700" stroke-width="1.15817" stroke-linecap="round" stroke-linejoin="round"/>
<path d="M29.0416 14.6635C29.0701 14.6625 29.4722 14.5167 30.092 14.0649C31.5012 13.0375 31.407 10.762 32.4847 9.33131C32.7438 8.98738 33.0896 8.75774 33.4364 8.53824C33.7831 8.31874 34.159 8.14913 34.707 8.0417C35.255 7.93427 35.9638 7.89417 36.5589 7.91865C37.1541 7.94313 37.6141 8.0334 37.7277 8.27526C37.8414 8.51712 37.5948 8.90782 37.2877 9.21346C36.6204 9.72785 34.0183 11.5351 30.464 14.0716C29.1406 15.0158 28.7926 15.2638 28.1263 15.6881" stroke="#FDC700" stroke-width="1.15817" stroke-linecap="round" stroke-linejoin="round"/>
<path d="M16.5006 28.2182C16.5291 28.2172 16.9312 28.0714 17.551 27.6196C18.9602 26.5921 18.866 24.3167 19.9437 22.886C20.2027 22.5421 20.5486 22.3124 20.8954 22.0929C21.2421 21.8734 21.618 21.7038 22.166 21.5964C22.714 21.489 23.4227 21.4489 24.0179 21.4733C24.613 21.4978 25.0731 21.5881 25.1867 21.8299C25.3004 22.0718 25.0538 22.4625 24.7466 22.7682C24.0793 23.2825 21.4773 25.0898 17.9229 27.6263C16.5996 28.5705 16.2516 28.8185 15.5853 29.2428" stroke="#FDC700" stroke-width="1.15817" stroke-linecap="round" stroke-linejoin="round"/>
<path d="M28.4569 16.1555C28.848 16.0123 30.9679 15.2743 33.6016 14.4018C35.5961 13.741 37.0718 13.1247 38.0142 12.8796C38.4849 12.7572 38.964 12.7409 39.3049 12.8934C39.6459 13.0458 39.8402 13.3935 39.9356 13.7898C40.031 14.1861 40.0215 14.6205 39.8308 14.9885C39.433 15.756 38.424 16.2092 37.5243 16.7001C36.7096 17.1446 35.8533 17.3274 34.9612 17.4093C32.9676 17.3639 30.9689 16.9606 28.5396 16.4103C27.9936 16.2955 27.5987 16.2302 26.4342 16.1448" stroke="#FDC700" stroke-width="1.15817" stroke-linecap="round" stroke-linejoin="round"/>
<path d="M15.9159 29.7102C16.3069 29.5669 18.4269 28.829 21.0605 27.9565C23.0551 27.2957 24.5308 26.6794 25.4732 26.4343C25.9439 26.3119 26.4229 26.2956 26.7639 26.448C27.1048 26.6005 27.2992 26.9482 27.3946 27.3445C27.49 27.7408 27.4805 28.1752 27.2897 28.5432C26.892 29.3107 25.883 29.7639 24.9832 30.2548C24.1686 30.6992 23.3123 30.8821 22.4202 30.964C20.4266 30.9185 18.4278 30.5153 15.9986 29.965C15.4526 29.8502 15.0577 29.7849 13.8932 29.6995" stroke="#FDC700" stroke-width="1.15817" stroke-linecap="round" stroke-linejoin="round"/>
<path d="M26.4787 17.3424C26.9745 17.3124 28.4295 17.223 29.6297 17.2992C30.8574 17.3771 31.949 18.2491 32.9713 18.8689C33.8405 19.3959 34.5501 20.0675 35.1794 20.8148C35.4852 21.1779 35.6911 21.5662 35.8585 21.9666C36.0258 22.367 36.1298 22.7824 36.1958 23.3444C36.2617 23.9064 36.2865 24.6024 36.1185 25.0468C35.9505 25.4911 35.589 25.6627 35.209 25.6204C34.829 25.578 34.4414 25.3165 33.9745 24.8949C31.9166 22.7214 30.2225 20.6603 28.6398 17.8867C28.2163 17.0299 27.7897 16.0729 26.7586 14.2662" stroke="#FDC700" stroke-width="1.15817" stroke-linecap="round" stroke-linejoin="round"/>
<path d="M13.9338 30.8932C14.4296 30.8632 15.8845 30.7738 17.0848 30.85C18.3125 30.9279 19.404 31.7999 20.4264 32.4197C21.2956 32.9466 22.0051 33.6183 22.6345 34.3656C22.9403 34.7287 23.1462 35.117 23.3135 35.5174C23.4809 35.9177 23.5849 36.3332 23.6508 36.8952C23.7168 37.4572 23.7416 38.1532 23.5736 38.5976C23.4056 39.0419 23.0441 39.2135 22.6641 39.1711C22.2841 39.1288 21.8965 38.8673 21.4296 38.4457C19.3717 36.2722 17.6776 34.211 16.0949 31.4375C15.6714 30.5807 15.2448 29.6237 14.2137 27.817" stroke="#FDC700" stroke-width="1.15817" stroke-linecap="round" stroke-linejoin="round"/>
<path d="M25.9785 15.7657C25.9781 15.7533 25.9776 15.741 26.1501 15.623C26.3225 15.5051 26.6679 15.282 26.9188 15.3617C27.1697 15.4413 27.3156 15.8304 27.4582 16.2715C28.2495 18.7195 28.8529 21.7001 28.9022 24.1548C28.9136 24.7239 28.7001 25.0957 28.4744 25.4379C28.2486 25.7802 27.9452 26.0787 27.6083 26.3244C27.2715 26.5702 26.9104 26.7541 26.5371 26.7502C26.1638 26.7462 25.7892 26.5487 25.5339 26.2C25.2786 25.8512 25.1539 25.3572 25.0661 24.5901C24.9312 22.798 25.1743 20.0103 25.6834 17.0682C25.9009 15.8575 26.0352 15.2204 26.2587 14.5232" stroke="#FDC700" stroke-width="1.15817" stroke-linecap="round" stroke-linejoin="round"/>
<path d="M13.4355 29.3165C13.4351 29.3041 13.4346 29.2917 13.6071 29.1738C13.7796 29.0559 14.1249 28.8328 14.3758 28.9124C14.6267 28.9921 14.7726 29.3812 14.9152 29.8223C15.7066 32.2702 16.3099 35.2509 16.3592 37.7055C16.3706 38.2747 16.1571 38.6465 15.9314 38.9887C15.7056 39.331 15.4022 39.6294 15.0654 39.8752C14.7285 40.1209 14.3675 40.3049 13.9942 40.3009C13.6209 40.297 13.2462 40.0995 12.9909 39.7507C12.7356 39.402 12.611 38.9079 12.5232 38.1409C12.3882 36.3488 12.6313 33.5611 13.1404 30.6189C13.3579 29.4083 13.4923 28.7711 13.7158 28.074" stroke="#FDC700" stroke-width="1.15817" stroke-linecap="round" stroke-linejoin="round"/>
<path d="M24.0688 14.6815C24.0825 14.6661 24.0962 14.6508 24.0232 14.4485C23.9502 14.2463 23.7901 13.8577 23.3881 13.5572C21.5159 12.1577 19.3869 12.3498 17.249 12.0297C16.0921 11.8565 14.9078 11.8585 13.9436 12.09C13.5184 12.1921 13.3927 12.7011 13.4446 13.0859C13.4966 13.4707 13.7734 13.8279 14.1043 14.1367C14.4351 14.4455 14.8116 14.6949 15.2115 14.8955C15.6114 15.0961 16.0234 15.2401 16.5454 15.343C17.0673 15.4459 17.6868 15.5032 18.8596 15.5023C20.0323 15.5015 21.7397 15.4408 24.2129 15.3903" stroke="#FDC700" stroke-width="1.15817" stroke-linecap="round" stroke-linejoin="round"/>
<path d="M11.5277 28.2323C11.5415 28.2169 11.5552 28.2015 11.4822 27.9993C11.4092 27.7971 11.249 27.4084 10.8471 27.108C8.97493 25.7085 6.8459 25.9006 4.708 25.5805C3.55111 25.4072 2.36678 25.4093 1.40261 25.6408C0.977352 25.7429 0.851656 26.2519 0.903633 26.6367C0.95561 27.0215 1.23242 27.3787 1.56325 27.6875C1.89408 27.9962 2.27056 28.2457 2.67048 28.4463C3.07041 28.6468 3.48239 28.7909 4.00435 28.8938C4.52631 28.9967 5.14576 29.054 6.31854 29.0531C7.49132 29.0523 9.19865 28.9915 11.6719 28.9411" stroke="#FDC700" stroke-width="1.15817" stroke-linecap="round" stroke-linejoin="round"/>
<path d="M24.0078 16.3186C24.0363 16.3176 23.1304 16.3225 21.4619 16.4137C19.0495 16.5456 16.4667 18.1755 14.7917 19.278C14.54 19.4438 14.9039 19.9293 16.2786 20.0707C20.178 20.4719 23.252 19.9212 24.072 19.6141C24.4605 19.4141 24.7928 19.1245 25.0352 18.7695C25.2776 18.4144 25.42 18.0026 25.5255 16.4224" stroke="#FDC700" stroke-width="1.15817" stroke-linecap="round" stroke-linejoin="round"/>
<path d="M11.4667 29.8655C11.4953 29.8644 10.5894 29.8694 8.92093 29.9606C6.50845 30.0925 3.92571 31.7224 2.25069 32.8249C1.99895 32.9906 2.36287 33.4762 3.7376 33.6176C7.63702 34.0188 10.7109 33.4681 11.531 33.161C11.9195 32.961 12.2518 32.6714 12.4942 32.3163C12.7366 31.9612 12.8789 31.5494 12.9845 29.9693" stroke="#FDC700" stroke-width="1.15817" stroke-linecap="round" stroke-linejoin="round"/>
<path d="M25.2441 15.2701C25.294 15.2683 25.3439 15.2665 25.4627 15.4731C25.5814 15.6797 25.7675 16.0947 25.4027 17.4037C24.4018 20.9951 22.9419 23.7458 22.4542 24.79C22.2308 25.2684 21.8998 25.5612 21.5198 25.743C21.1398 25.9248 20.6809 25.9659 20.2871 25.829C19.8934 25.6921 19.5788 25.376 19.3894 24.9971C19.2001 24.6181 19.1454 24.1861 19.1951 23.7437C20.7162 20.4755 23.8594 15.495 25.2165 14.1835C25.5755 13.9621 25.9909 13.801 26.665 13.8667" stroke="#FDC700" stroke-width="1.15817" stroke-linecap="round" stroke-linejoin="round"/>
<path d="M12.7051 28.8247C12.755 28.823 12.8049 28.8212 12.9236 29.0278C13.0424 29.2344 13.2284 29.6493 12.8636 30.9583C11.8627 34.5498 10.4028 37.3005 9.91516 38.3447C9.69174 38.8231 9.36072 39.1159 8.98072 39.2977C8.60072 39.4795 8.1418 39.5206 7.74809 39.3837C7.35437 39.2468 7.03977 38.9307 6.85038 38.5517C6.661 38.1728 6.60636 37.7408 6.65605 37.2984C8.17712 34.0302 11.3204 29.0497 12.6774 27.7381C13.0364 27.5168 13.4518 27.3557 14.126 27.4214" stroke="#FDC700" stroke-width="1.15817" stroke-linecap="round" stroke-linejoin="round"/>
<path d="M22.9197 3.64547C22.9339 3.64496 22.9482 3.64445 23.1239 3.76344C23.2997 3.88243 23.6365 4.12093 24.064 4.91182C26.0942 8.66787 26.0866 10.3113 26.1334 10.929C26.1428 11.0531 25.7675 10.6809 25.4897 10.2129C24.194 8.03017 23.6357 5.35573 23.4817 3.82121C23.4654 3.65847 23.9744 4.00069 24.2758 4.40087C25.3121 6.51237 26.2198 8.76143 27.0945 11.0251C27.2735 11.5479 27.3806 11.9508 27.2632 12.6521" stroke="#FDC700" stroke-width="1.15817" stroke-linecap="round" stroke-linejoin="round"/>
<path d="M10.3767 17.1962C10.391 17.1957 10.4052 17.1952 10.581 17.3142C10.7567 17.4332 11.0935 17.6717 11.521 18.4626C13.5512 22.2187 13.5436 23.8621 13.5904 24.4797C13.5998 24.6039 13.2245 24.2316 12.9468 23.7637C11.6511 21.5809 11.0927 18.9065 10.9387 17.372C10.9224 17.2092 11.4314 17.5515 11.7328 17.9516C12.7692 20.0631 13.6768 22.3122 14.5515 24.5759C14.7305 25.0987 14.8376 25.5016 14.7203 26.2029" stroke="#FDC700" stroke-width="1.15817" stroke-linecap="round" stroke-linejoin="round"/>
<path d="M21.6238 9.78874C21.6376 9.77585 21.6514 9.76295 21.7105 9.5635C21.7697 9.36404 21.8737 8.97841 22.0976 8.95101C22.3215 8.92362 22.662 9.26615 22.9417 9.61622C23.2215 9.96629 23.4301 10.3135 23.6032 10.681C23.7763 11.0485 23.9075 11.4258 23.7684 11.5283C23.6292 11.6308 23.2159 11.4471 22.7842 11.1246C21.8498 10.4265 21.1351 9.4399 20.8296 8.86364C20.8538 8.72453 21.2418 8.89673 21.6159 9.26817C21.99 9.6396 22.3385 10.2051 22.9562 11.3722" stroke="#FDC700" stroke-width="1.15817" stroke-linecap="round" stroke-linejoin="round"/>
<path d="M9.08078 23.3395C9.0946 23.3266 9.10842 23.3137 9.16756 23.1143C9.2267 22.9148 9.33075 22.5292 9.55462 22.5018C9.77848 22.4744 10.119 22.8169 10.3988 23.167C10.6785 23.5171 10.8871 23.8643 11.0602 24.2318C11.2333 24.5993 11.3645 24.9766 11.2254 25.0791C11.0863 25.1816 10.6729 24.9979 10.2413 24.6754C9.30681 23.9773 8.59209 22.9907 8.28667 22.4144C8.31086 22.2753 8.69886 22.4475 9.07297 22.8189C9.44707 23.1904 9.79553 23.7558 10.4133 24.9229" stroke="#FDC700" stroke-width="1.15817" stroke-linecap="round" stroke-linejoin="round"/>
<path d="M23.119 14.754C23.1293 14.7412 23.1395 14.7285 23.0598 14.5402C22.9801 14.3518 22.8102 13.9884 22.4975 13.7434C20.9892 12.5617 18.6472 12.855 17.6184 12.8714C17.387 12.8751 17.822 13.2234 18.3362 13.4585C20.6355 14.51 22.3969 14.9363 22.8344 14.9759C21.6156 14.1839 20.0672 13.5738 19.2772 13.3507C18.8733 13.2452 18.4633 13.1557 17.3547 12.93" stroke="#FDC700" stroke-width="1.15817" stroke-linecap="round" stroke-linejoin="round"/>
<path d="M10.578 28.3087C10.5883 28.2959 10.5985 28.2832 10.5188 28.0948C10.4391 27.9065 10.2691 27.543 9.95648 27.2981C8.44821 26.1164 6.10623 26.4097 5.07736 26.4261C4.84601 26.4298 5.28098 26.7781 5.79515 27.0132C8.09443 28.0647 9.8559 28.491 10.2934 28.5306C9.07458 27.7386 7.52615 27.1285 6.7362 26.9053C6.3323 26.7999 5.92226 26.7104 4.81372 26.4847" stroke="#FDC700" stroke-width="1.15817" stroke-linecap="round" stroke-linejoin="round"/>
<path d="M21.8486 10.6153C21.8913 10.6138 21.9341 10.6123 21.8302 10.4325C21.7263 10.2526 21.4745 9.89454 21.139 9.64547C19.6336 8.52774 17.8262 8.50572 17.5233 8.27436C17.4502 8.21852 18.121 8.27631 18.788 8.54395C20.3059 9.15299 21.4905 9.99189 21.9331 10.2153C22.3405 10.421 20.7665 9.49188 20.4623 9.20814C20.9131 9.47787 21.8493 10.2693 22.7415 11.2115C23.1266 11.646 23.3744 11.9918 23.8102 12.8603" stroke="#FDC700" stroke-width="1.15817" stroke-linecap="round" stroke-linejoin="round"/>
<path d="M9.3056 24.1622C9.34838 24.1607 9.39115 24.1592 9.28725 23.9793C9.18336 23.7995 8.9315 23.4414 8.59603 23.1923C7.0906 22.0746 5.28325 22.0526 4.98037 21.8212C4.90727 21.7654 5.57801 21.8232 6.24502 22.0908C7.76288 22.6999 8.94751 23.5388 9.39011 23.7622C9.79753 23.9679 8.22352 23.0388 7.91937 22.755C8.3701 23.0247 9.30638 23.8162 10.1985 24.7584C10.5836 25.1928 10.8314 25.5387 11.2673 26.4071" stroke="#FDC700" stroke-width="1.15817" stroke-linecap="round" stroke-linejoin="round"/>
<path d="M27.0767 9.55703C27.4699 9.25287 28.9648 7.45484 30.8104 5.26514C31.2015 4.80116 31.5633 4.54052 31.762 4.61484C31.9608 4.68915 32.0159 5.13361 31.7589 6.01754C31.1041 8.26915 30.1457 9.93512 29.897 10.2571C28.5205 12.039 31.7576 5.40922 32.0465 4.96455C31.8948 6.70426 31.2502 9.46053 30.6908 11.4097C30.5125 11.8313 30.2997 12.1688 29.3018 12.8222" stroke="#FDC700" stroke-width="1.15817" stroke-linecap="round" stroke-linejoin="round"/>
<path d="M14.5337 23.1117C14.927 22.8076 16.4218 21.0095 18.2674 18.8198C18.6585 18.3558 19.0203 18.0952 19.2191 18.1695C19.4178 18.2438 19.4729 18.6883 19.2159 19.5722C18.5612 21.8238 17.6027 23.4898 17.354 23.8117C15.9775 25.5937 19.2146 18.9639 19.5036 18.5192C19.3519 20.2589 18.7072 23.0152 18.1478 24.9644C17.9695 25.386 17.7567 25.7235 16.7588 26.3769" stroke="#FDC700" stroke-width="1.15817" stroke-linecap="round" stroke-linejoin="round"/>
<path d="M29.6506 13.8055C30.0357 13.4619 31.0679 11.9421 32.5579 10.4953C32.9573 10.1075 33.4943 9.8568 33.9415 9.62568C34.3887 9.39457 34.7797 9.24921 35.0013 9.39062C35.2229 9.53203 35.2633 9.9646 35.1038 10.2869C34.9444 10.6091 34.5838 10.808 34.1196 11.0059C32.0879 11.8719 30.6112 12.3062 30.1559 12.5426C28.8301 13.2309 32.7544 11.184 33.2166 11.1119C33.3333 11.0936 32.9882 11.5925 32.6334 11.8798C32.2786 12.1671 31.8676 12.3504 31.4691 12.5643C31.0707 12.7782 30.6973 13.0172 29.6546 13.9181" stroke="#FDC700" stroke-width="1.15817" stroke-linecap="round" stroke-linejoin="round"/>
<path d="M17.1076 27.3602C17.4927 27.0166 18.5249 25.4968 20.015 24.05C20.4143 23.6622 20.9513 23.4115 21.3985 23.1804C21.8458 22.9493 22.2367 22.8039 22.4583 22.9453C22.6799 23.0867 22.7203 23.5193 22.5609 23.8415C22.4014 24.1638 22.0409 24.3626 21.5766 24.5605C19.5449 25.4266 18.0683 25.8609 17.613 26.0973C16.2872 26.7856 20.2114 24.7387 20.6736 24.6665C20.7903 24.6483 20.4453 25.1472 20.0904 25.4345C19.7356 25.7218 19.3246 25.9051 18.9262 26.119C18.5277 26.3329 18.1544 26.5719 17.1116 27.4728" stroke="#FDC700" stroke-width="1.15817" stroke-linecap="round" stroke-linejoin="round"/>
<path d="M29.4673 16.6016C29.9675 16.3824 31.3595 15.4602 32.8663 14.5817C33.2402 14.3637 33.6711 14.3145 34.1087 14.2516C34.5462 14.1888 35.006 14.1724 35.3924 14.3025C35.7787 14.4326 36.0776 14.7097 36.3242 15.0463C36.5707 15.3829 36.7558 15.7706 36.6776 16.108C36.5994 16.4453 36.2524 16.7206 35.726 16.8747C34.5414 17.2217 32.5233 16.9282 30.3947 16.6674C29.5307 16.5616 29.1078 16.4932 29.5822 16.3635C31.4026 15.8659 33.8523 15.8067 35.5554 15.8119C36.276 15.814 36.7001 15.9683 36.7269 16.1405C36.7537 16.3126 36.3691 16.5371 35.2124 16.6931C32.1385 16.9296 29.7402 16.9608 28.8854 16.7856C28.4535 16.6623 28.0255 16.4692 27.4657 16.2745" stroke="#FDC700" stroke-width="1.15817" stroke-linecap="round" stroke-linejoin="round"/>
<path d="M16.9262 30.1563C17.4265 29.9371 18.8184 29.0148 20.3253 28.1364C20.6992 27.9184 21.1301 27.8692 21.5677 27.8063C22.0052 27.7435 22.465 27.7271 22.8513 27.8572C23.2377 27.9873 23.5366 28.2644 23.7832 28.601C24.0297 28.9376 24.2148 29.3253 24.1366 29.6627C24.0584 30 23.7113 30.2753 23.185 30.4294C22.0004 30.7764 19.9823 30.4829 17.8537 30.2221C16.9897 30.1162 16.5668 30.0479 17.0412 29.9182C18.8615 29.4206 21.3113 29.3614 23.0144 29.3665C23.735 29.3687 24.1591 29.523 24.1859 29.6951C24.2127 29.8673 23.8281 30.0918 22.6714 30.2478C19.5975 30.4843 17.1992 30.5155 16.3444 30.3403C15.9125 30.217 15.4845 30.0239 14.9247 29.8292" stroke="#FDC700" stroke-width="1.15817" stroke-linecap="round" stroke-linejoin="round"/>
<path d="M27.3825 18.1851C27.8773 18.1278 29.1739 18.0011 30.0706 18.0883C30.5312 18.133 30.9651 18.4136 31.3684 18.6794C32.1561 19.1985 32.8266 20.0208 33.4969 20.9639C34.1639 21.9026 34.6494 22.8895 34.7835 23.6097C34.8353 23.8875 34.2722 23.9437 33.8872 23.8329C32.0625 22.358 29.9602 20.1616 28.8969 18.9993C28.409 18.4612 28.026 18.0285 27.437 17.5895" stroke="#FDC700" stroke-width="1.15817" stroke-linecap="round" stroke-linejoin="round"/>
<path d="M14.8434 31.7398C15.3382 31.6825 16.6348 31.5558 17.5315 31.643C17.9922 31.6877 18.426 31.9683 18.8293 32.2341C19.6171 32.7532 20.2876 33.5755 20.9578 34.5186C21.6249 35.4573 22.1104 36.4442 22.2445 37.1644C22.2962 37.4422 21.7331 37.4984 21.3481 37.3876C19.5234 35.9127 17.4211 33.7163 16.3578 32.554C15.8699 32.0159 15.4869 31.5831 14.8979 31.1442" stroke="#FDC700" stroke-width="1.15817" stroke-linecap="round" stroke-linejoin="round"/>
<path d="M26.0895 17.7159C26.1394 17.7141 26.1893 17.7123 26.3078 17.9115C26.6514 18.489 26.8675 20.7361 26.9132 23.6761C26.9308 24.803 26.7904 25.1886 26.5639 25.4913C26.3373 25.7941 25.9914 26.0024 25.7331 25.9153C25.4748 25.8283 25.3147 25.4396 25.2158 24.78C25.0872 21.7796 25.2619 20.0229 25.4777 18.42C25.4844 18.0195 25.417 17.6275 25.2286 17.228" stroke="#FDC700" stroke-width="1.15817" stroke-linecap="round" stroke-linejoin="round"/>
<path d="M13.5505 31.2706C13.6004 31.2688 13.6503 31.267 13.7688 31.4662C14.1123 32.0437 14.3285 34.2908 14.3742 37.2308C14.3917 38.3576 14.2513 38.7433 14.0248 39.046C13.7982 39.3488 13.4523 39.557 13.194 39.47C12.9358 39.383 12.7756 38.9943 12.6768 38.3346C12.5482 35.3342 12.7228 33.5776 12.9386 31.9747C12.9454 31.5742 12.8779 31.1822 12.6896 30.7827" stroke="#FDC700" stroke-width="1.15817" stroke-linecap="round" stroke-linejoin="round"/>
<path d="M23.2827 18.4572C23.3112 18.4562 23.4968 18.8439 23.6614 19.7443C23.8689 20.8784 22.9163 22.536 22.2441 23.8709C22.041 24.2741 21.6645 23.7963 21.5524 23.3601C21.685 21.3214 22.1595 19.365 22.5405 18.2052C22.747 17.6567 22.9802 17.1896 23.3796 16.62" stroke="#FDC700" stroke-width="1.15817" stroke-linecap="round" stroke-linejoin="round"/>
<path d="M10.7417 32.008C10.7702 32.007 10.9557 32.3947 11.1204 33.2951C11.3279 34.4291 10.3753 36.0867 9.70307 37.4216C9.50002 37.8248 9.12345 37.347 9.01135 36.9109C9.14396 34.8722 9.61844 32.9158 9.99949 31.756C10.206 31.2075 10.4392 30.7404 10.8385 30.1708" stroke="#FDC700" stroke-width="1.15817" stroke-linecap="round" stroke-linejoin="round"/>
<path d="M22.4071 18.4019C22.4459 18.3882 22.4846 18.3744 22.3551 18.2275C22.2256 18.0807 21.9265 17.8011 21.2147 17.677C20.5028 17.5528 19.3872 17.5925 18.554 17.7214C17.7208 17.8502 17.2039 18.067 16.771 18.3099C16.338 18.5527 16.0048 18.8151 16.0279 19.0611C16.0511 19.3071 16.4409 19.5289 16.8787 19.6347C17.3165 19.7404 17.7906 19.7236 18.2672 19.6273C19.2277 19.4332 20.0488 18.9936 20.8209 18.5717C21.232 18.3313 21.6819 18.0376 21.8937 17.6774C22.1056 17.3172 22.0658 16.8994 21.499 16.2849" stroke="#FDC700" stroke-width="1.15817" stroke-linecap="round" stroke-linejoin="round"/>
<path d="M9.86219 31.9527C9.90095 31.9389 9.93972 31.9252 9.81018 31.7783C9.68064 31.6314 9.38161 31.3519 8.66975 31.2278C7.95788 31.1036 6.84224 31.1433 6.00906 31.2722C5.17587 31.401 4.65896 31.6178 4.22604 31.8607C3.79311 32.1035 3.45984 32.3659 3.48303 32.6119C3.50622 32.8579 3.89598 33.0796 4.33379 33.1854C4.77161 33.2912 5.24567 33.2744 5.72231 33.178C6.68278 32.9839 7.50388 32.5444 8.27602 32.1225C8.68703 31.8821 9.13696 31.5883 9.34882 31.2281C9.56068 30.8679 9.52084 30.4502 8.95412 29.8356" stroke="#FDC700" stroke-width="1.15817" stroke-linecap="round" stroke-linejoin="round"/>
<path d="M25.1369 13.4531C25.5766 13.2514 26.7166 12.677 27.5588 12.4028C27.99 12.2625 28.4702 12.2676 28.8312 12.4318C29.1921 12.5961 29.4298 12.9572 29.5675 13.372C29.7053 13.7869 29.7358 14.2446 29.6652 14.6621C29.5947 15.0795 29.422 15.4428 29.1742 15.7794C28.6699 16.4646 27.9227 16.9739 27.1778 17.4071C26.8085 17.6217 26.3884 17.6954 25.975 17.6843C25.5615 17.6731 25.15 17.5414 24.8256 17.2742C24.5012 17.007 24.2765 16.6083 24.0926 16.1945C23.9088 15.7807 23.7726 15.3639 23.6823 14.9342C23.592 14.5044 23.5517 14.0743 23.6822 13.6886C23.8126 13.303 24.115 12.9748 24.4667 12.7466C24.8185 12.5185 25.2104 12.4004 25.8182 12.3115C26.4259 12.2225 27.2376 12.1664 27.8438 12.256C28.45 12.3456 28.826 12.5827 29.0465 12.9073C29.2671 13.2318 29.3208 13.6367 29.2249 14.0344C29.129 14.4321 28.8819 14.8104 28.567 15.0975C28.252 15.3847 27.8767 15.5691 27.4539 15.6847C27.0311 15.8003 26.5722 15.8415 26.2631 15.6755C25.954 15.5096 25.8087 15.1353 25.7263 14.7319C25.6439 14.3286 25.6289 13.9075 25.7955 13.5728C25.962 13.2381 26.3105 13.0025 26.6601 13.0462C27.0096 13.0899 27.3497 13.42 27.5529 13.8247C27.7561 14.2294 27.812 14.6986 27.7423 15.1286C27.6725 15.5586 27.4753 15.9351 27.1767 16.156C26.878 16.3768 26.4837 16.4305 26.1117 16.3253C25.7398 16.2201 25.402 15.9544 25.1612 15.5966C24.9205 15.2389 24.787 14.7972 24.7252 14.3661C24.6635 13.935 24.6776 13.5277 24.8851 13.2314C25.0927 12.9352 25.4934 12.7622 25.8955 12.805C26.2975 12.8478 26.6888 13.1117 26.9615 13.4422C27.2342 13.7728 27.3766 14.162 27.3258 14.5369C27.2751 14.9117 27.027 15.2603 25.6588 15.659" stroke="#785800" stroke-width="1.15817" stroke-linecap="round" stroke-linejoin="round"/>
<path d="M12.5978 27.0077C13.0375 26.8061 14.1775 26.2316 15.0198 25.9575C15.4509 25.8172 15.9312 25.8223 16.2921 25.9865C16.6531 26.1508 16.8907 26.5118 17.0285 26.9267C17.1662 27.3416 17.1968 27.7993 17.1262 28.2167C17.0556 28.6342 16.8829 28.9974 16.6351 29.3341C16.1308 30.0192 15.3837 30.5286 14.6387 30.9617C14.2694 31.1764 13.8493 31.2501 13.4359 31.2389C13.0225 31.2278 12.6109 31.0961 12.2866 30.8289C11.9622 30.5617 11.7374 30.1629 11.5536 29.7492C11.3697 29.3354 11.2335 28.9186 11.1432 28.4888C11.0529 28.0591 11.0127 27.629 11.1431 27.2433C11.2735 26.8577 11.5759 26.5295 11.9277 26.3013C12.2794 26.0732 12.6713 25.9551 13.2791 25.8662C13.8869 25.7772 14.6986 25.7211 15.3047 25.8107C15.9109 25.9003 16.2869 26.1374 16.5075 26.462C16.728 26.7865 16.7817 27.1914 16.6858 27.5891C16.5899 27.9868 16.3428 28.3651 16.0279 28.6522C15.713 28.9393 15.3377 29.1238 14.9149 29.2394C14.4921 29.355 14.0332 29.3962 13.7241 29.2302C13.415 29.0643 13.2696 28.69 13.1872 28.2866C13.1048 27.8833 13.0899 27.4622 13.2564 27.1275C13.4229 26.7928 13.7714 26.5572 14.121 26.6009C14.4706 26.6446 14.8107 26.9747 15.0138 27.3794C15.217 27.7841 15.273 28.2533 15.2032 28.6833C15.1334 29.1133 14.9363 29.4898 14.6376 29.7107C14.3389 29.9315 13.9447 29.9852 13.5727 29.88C13.2007 29.7748 12.8629 29.509 12.6222 29.1513C12.3814 28.7936 12.2479 28.3519 12.1862 27.9208C12.1244 27.4896 12.1385 27.0824 12.3461 26.7861C12.5537 26.4899 12.9544 26.3169 13.3564 26.3597C13.7585 26.4025 14.1497 26.6663 14.4224 26.9969C14.6952 27.3274 14.8375 27.7167 14.7868 28.0915C14.736 28.4664 14.4879 28.815 13.1197 29.2137" stroke="#785800" stroke-width="1.15817" stroke-linecap="round" stroke-linejoin="round"/>
<path d="M27.166 13.293C27.1669 13.3177 27.075 13.743 26.7622 14.4783C26.6093 14.838 26.1964 15.0217 26.0237 14.9318C25.851 14.8419 25.8615 14.4348 26.0064 14.0825C26.1512 13.7302 26.4302 13.445 26.6537 13.4862C26.8773 13.5274 27.037 13.9036 26.9526 14.2274C26.8682 14.5511 26.5348 14.811 25.8349 15.0914" stroke="#D19D01" stroke-width="1.15817" stroke-linecap="round" stroke-linejoin="round"/>
<path d="M14.623 26.8477C14.6239 26.8724 14.532 27.2977 14.2193 28.033C14.0663 28.3926 13.6535 28.5764 13.4808 28.4865C13.308 28.3966 13.3185 27.9895 13.4634 27.6372C13.6083 27.2849 13.8872 26.9996 14.1108 27.0408C14.3343 27.082 14.494 27.4583 14.4096 27.782C14.3252 28.1058 13.9918 28.3657 13.2919 28.6461" stroke="#D19D01" stroke-width="1.15817" stroke-linecap="round" stroke-linejoin="round"/>
<path d="M26.8203 21.5156C26.7918 21.5166 26.6243 22.036 26.2217 25.1879C25.8866 27.8116 25.63 32.5528 25.5304 39.5497C25.4308 46.5466 25.584 55.6653 25.6046 60.5819C25.6253 65.4985 25.5088 65.9367 25.2786 66.6325" stroke="#4E7A27" stroke-width="1.15817" stroke-linecap="round" stroke-linejoin="round"/>
<path d="M17.1194 34.324C17.1479 34.323 17.5008 34.6006 18.0686 35.3226C18.748 36.1865 18.9805 38.7192 19.9302 42.4717C21.0079 46.7301 22.1698 51.2173 23.3751 55.034C24.2507 57.8065 24.6254 60.223 25.0001 62.5558C25.3358 64.6461 25.4209 69.9414 25.4207 77.1971C25.3613 80.1817 25.1816 81.7506 25.0264 82.8053C24.8712 83.86 24.746 84.353 24.3926 85.5453" stroke="#4E7A27" stroke-width="1.15817" stroke-linecap="round" stroke-linejoin="round"/>
<path d="M25.1881 56.1962C25.2166 56.1952 25.4399 56.5419 25.7566 57.285C26.0848 58.0549 25.0426 64.1788 23.7065 73.0012C23.0207 76.8304 22.5134 78.2882 21.8813 79.7836C21.5772 80.4638 21.3066 80.9844 21.0278 81.5206" stroke="#4E7A27" stroke-width="1.15817" stroke-linecap="round" stroke-linejoin="round"/>
<path d="M26.0399 50.0697C26.4126 49.4096 27.8662 46.9959 29.1875 45.4633C29.759 44.8003 30.5537 44.4124 31.3919 43.9902C32.4113 43.4767 33.8674 43.2438 35.3701 43.0513C36.0613 42.9627 36.6157 42.9597 37.0621 43.0814C37.5084 43.2032 37.8318 43.467 37.8016 43.6359C37.7161 44.1131 35.8553 43.9539 33.7933 44.1013C30.1511 44.3617 27.8756 46.535 27.1496 47.0628C26.5325 47.6414 26.0235 48.3256 25.6203 49.0808C25.4393 49.4611 25.3063 49.8354 24.9626 51.1001" stroke="#4E7A27" stroke-width="1.15817" stroke-linecap="round" stroke-linejoin="round"/>
<path d="M25.2216 48.3002C25.2358 48.2997 25.2501 48.2992 25.4306 48.201C25.6111 48.1029 25.9575 47.907 26.0763 47.585C26.1951 47.2631 26.0759 46.8209 25.8942 46.3742C24.9569 44.0689 23.5025 42.0696 22.991 41.3794C22.7277 41.0241 22.3979 40.7044 22.1637 40.7212C21.9295 40.738 21.7858 41.1126 21.6994 41.5094C21.613 41.9062 21.5883 42.3138 21.7444 42.6567C22.422 44.1446 24.2498 44.8614 25.3618 46.3688C25.8431 47.2467 26.2102 48.1553 26.4258 49.1985C26.5078 49.8001 26.5344 50.5481 26.5619 51.3188" stroke="#4E7A27" stroke-width="1.15817" stroke-linecap="round" stroke-linejoin="round"/>
<path d="M25.9136 50.7127C26.2141 50.3329 27.6063 48.6689 29.6181 46.9708C30.8076 45.9668 32.2472 45.5042 33.3814 45.1335C34.4014 44.8001 35.4918 44.788 36.195 44.9081C36.3976 44.9427 36.078 45.3475 35.7294 45.647C34.1899 46.9695 31.0034 48.1834 28.7363 49.4323C28.0254 49.9932 27.3203 50.8277 26.5974 51.939C26.2373 52.5116 25.8907 53.1018 25.1413 54.8436" stroke="#669D34" stroke-width="1.15817" stroke-linecap="round" stroke-linejoin="round"/>
<path d="M23.4816 57.4915C23.5021 57.466 23.5909 57.0433 23.6493 56.1881C23.7124 55.2645 23.1555 54.2445 22.6605 53.1613C22.1649 52.0767 21.495 51.2204 20.8831 50.5472C20.3173 49.9247 19.3941 49.3412 18.2961 48.7646C17.7913 48.4995 17.3246 48.4315 16.8694 48.3666C16.4143 48.3016 15.9673 48.2778 15.4952 48.3399C15.0232 48.402 14.5395 48.5506 14.1172 48.7251C13.6949 48.8996 13.3485 49.0955 13.3948 49.2417C13.9088 50.8669 17.4523 50.2271 19.6885 51.1751C20.8715 51.6766 21.7164 52.4532 22.3753 53.1265C22.7161 53.4749 22.9847 53.9156 23.2157 54.374C23.8624 56.3601 24.0544 58.0887 24.0094 59.2305C23.9424 59.7556 23.7858 60.1704 23.6245 60.5978" stroke="#669D34" stroke-width="1.15817" stroke-linecap="round" stroke-linejoin="round"/>
<path d="M15.8108 50.1122C15.3095 50.1449 13.0043 50.0438 10.9339 49.8455C10.3247 49.7871 9.54855 49.8615 9.35921 49.8348C8.14033 49.6626 12.1148 49.119 13.1416 49.1679C13.6449 49.2477 14.1121 49.4394 14.5401 49.6369C14.9681 49.8344 15.3427 50.0319 15.7359 50.438" stroke="#669D34" stroke-width="1.15817" stroke-linecap="round" stroke-linejoin="round"/>
<path d="M14.6173 50.2756C14.5674 50.2773 14.9149 50.4361 15.6768 50.6286C16.0552 50.7242 16.4583 50.5699 16.4974 50.3962C16.5365 50.2225 16.2099 49.9712 15.7689 49.7473C13.7934 48.7445 12.2534 48.4644 11.4316 48.306C11.0119 48.2251 10.5761 48.2034 10.4818 48.3448C10.3875 48.4863 10.6452 48.807 11.0613 48.9621C12.0441 49.097 13.0773 49.1644 14.0319 49.4259C14.5374 49.5993 15.0854 49.855 15.65 50.1186" stroke="#669D34" stroke-width="1.15817" stroke-linecap="round" stroke-linejoin="round"/>
<path d="M9.78031 47.4144C9.79457 47.4139 9.80882 47.4134 9.67719 47.5693C9.54555 47.7253 9.26759 48.0378 8.9924 48.4006C8.7172 48.7634 8.45319 49.1671 7.68544 50.2395" stroke="#4E7A27" stroke-width="1.15817" stroke-linecap="round" stroke-linejoin="round"/>
<path d="M11.284 48.4024C11.3125 48.4014 10.8205 48.6024 9.832 48.9752C9.35029 49.1464 8.90898 49.2811 8.46076 49.4117C8.01254 49.5423 7.57078 49.6647 6.55799 49.9233" stroke="#4E7A27" stroke-width="1.15817" stroke-linecap="round" stroke-linejoin="round"/>
<path d="M8.39206 48.8624C8.71395 48.903 10.8826 48.9316 12.7473 49.2427C14.4929 49.534 16.2008 50.6275 17.8274 51.393C19.4828 52.1722 21.162 53.6983 22.3607 55.1261C23.1079 56.7142 23.5728 57.9352 23.9098 58.7627C24.072 59.1897 24.2161 59.6309 24.5091 60.8019" stroke="#4E7A27" stroke-width="1.15817" stroke-linecap="round" stroke-linejoin="round"/>
<path d="M9.17758 47.2413C9.1767 47.2165 9.55102 47.0044 10.4129 46.6919C12.5316 45.9237 14.5944 47.2159 16.3392 47.793C18.031 48.3526 19.5424 49.4146 21.1579 50.7735C21.8447 51.5495 22.421 52.3424 22.8926 53.16C23.115 53.592 23.3029 54.059 23.7206 55.3664" stroke="#4E7A27" stroke-width="1.15817" stroke-linecap="round" stroke-linejoin="round"/>
<path d="M9.00026 48.0125C9.05729 48.0105 8.6798 48.0091 7.89005 48.1535C7.48737 48.2271 7.16061 48.5884 6.87027 48.9055C6.57993 49.2227 6.35631 49.558 6.16927 49.918C5.98222 50.2781 5.83852 50.6528 5.65715 51.318" stroke="#4E7A27" stroke-width="1.15817" stroke-linecap="round" stroke-linejoin="round"/>
<path d="M7.02256 50.5078C7.05108 50.5068 7.45503 50.4131 8.19048 50.103C8.82801 49.5484 9.50296 49.001 10.2983 48.6723C10.7188 48.5429 11.1737 48.4896 12.4932 48.6373" stroke="#4E7A27" stroke-width="1.15817" stroke-linecap="round" stroke-linejoin="round"/>
<path d="M7.92455 49.1586C7.95218 49.1328 8.12438 48.7444 8.5445 48.0914C8.75118 47.7702 9.16823 47.6445 9.56431 47.5363C10.3644 47.3177 11.2722 47.326 12.1822 47.3792C14.152 47.4943 17.1155 49.4472 19.317 50.5648C20.131 50.9781 20.8498 51.5242 21.5124 52.105C22.1391 52.7763 22.6747 53.5422 23.0933 54.3345C23.2872 54.7281 23.4433 55.1045 23.8044 56.5598" stroke="#4E7A27" stroke-width="1.15817" stroke-linecap="round" stroke-linejoin="round"/>
<path d="M30.2522 19.3802C30.252 19.373 30.2931 19.28 30.4039 19.132C30.4584 19.0591 30.5699 19.0478 30.6691 19.0582C30.8745 19.0797 31.0729 19.2356 31.2688 19.3791C31.4478 19.5103 32.3345 20.3691 33.6168 21.601C34.1942 22.1557 34.3453 22.365 34.4626 22.5522C34.5246 22.6511 34.575 22.768 34.6125 22.8756C34.65 22.9832 34.6688 23.0805 34.6469 23.168C34.6251 23.2555 34.5619 23.3302 34.4752 23.3468C33.5307 23.5282 32.191 21.8703 31.7437 21.4314C31.5688 21.2598 31.4396 21.002 31.2839 20.6543C31.0859 20.2125 31.0265 19.8394 30.9892 19.649C30.9702 19.5525 30.956 19.4554 30.9969 19.4101C31.0378 19.3647 31.1356 19.3737 31.2284 19.4207C31.849 19.7352 32.5319 20.8182 33.8363 22.0357C34.2267 22.4001 34.3967 22.674 34.5451 22.9228C34.6733 23.1376 34.7209 23.3751 34.7523 23.6044C34.7674 23.7141 34.7676 23.8117 34.7262 23.8839C34.6848 23.956 34.5983 24 34.508 24.0101C34.4178 24.0202 34.3263 23.9949 34.2255 23.9381C33.7194 23.6529 32.6893 22.3264 32.0462 21.4874C31.7482 21.0987 31.699 20.7153 31.6535 20.467C31.6299 20.3377 31.6236 20.199 31.6645 20.1025C31.7054 20.0061 31.7984 19.9553 31.9097 19.9426C32.5882 19.8651 33.4527 20.6085 34.0288 21.0007C34.2395 21.1442 34.378 21.3239 34.5209 21.5039C34.8159 21.8755 34.9912 22.5829 35.1126 23.1805C35.1416 23.3232 35.1636 23.5027 35.1641 23.6408C35.1647 23.7789 35.1363 23.8713 35.0659 23.899C34.9955 23.9266 34.8839 23.8866 34.7694 23.8034C34.0091 23.25 32.8345 21.5092 32.2993 20.786C32.2371 20.702 32.2226 20.5985 32.2395 20.5115C32.2565 20.4246 32.323 20.3468 32.4131 20.3285C32.5032 20.3102 32.615 20.3537 32.8118 20.4828C33.7239 21.0811 34.0947 21.5462 34.4544 21.9774C34.5286 22.0819 34.5824 22.1774 34.6235 22.289C34.6645 22.4007 34.6912 22.5256 34.6964 22.8278" stroke="#FDC700" stroke-width="1.15817" stroke-linecap="round" stroke-linejoin="round"/>
<path d="M25.5676 7.96985C25.566 7.92597 25.5614 7.69865 25.5225 7.29999C25.4469 6.52564 24.7563 5.28565 24.338 4.33248C24.2165 4.05558 24.0481 3.86241 23.8673 3.65999C23.2423 2.9603 22.4711 2.56109 22.2543 2.4448C22.1532 2.39061 22.0578 2.37173 21.9722 2.39631C21.8867 2.42089 21.8108 2.49603 21.7834 2.60201C21.7561 2.70799 21.7797 2.84253 21.8446 3.02486C21.9929 3.44172 22.2079 3.82699 22.4637 4.25828C22.8586 4.92415 23.7309 5.91807 24.6473 6.94329C25.3577 7.73805 25.4983 8.27071 25.6175 8.34143C25.6655 8.36991 25.7116 8.20879 25.7008 8.05629C25.6767 7.71306 25.1593 6.55375 24.5028 4.98503C24.1779 4.20871 23.9599 3.87295 23.7526 3.5631C23.5629 3.2796 23.2815 3.00697 22.9629 2.71483C22.8085 2.5733 22.6525 2.46395 22.5928 2.48001C22.533 2.49606 22.5699 2.64557 22.7348 2.93145C22.8997 3.21733 23.1914 3.63506 23.6878 4.46585C24.1843 5.29664 24.8766 6.52783 25.3191 7.28193C25.9334 8.27575 26.2349 8.66317 26.5396 8.98525C26.7196 9.16689 26.9512 9.38547 27.2213 9.69412" stroke="#FDC700" stroke-width="1.15817" stroke-linecap="round" stroke-linejoin="round"/>
<path d="M24.3923 11.9384C24.423 11.9373 24.5518 11.9173 24.7258 11.8357C24.8046 11.7988 24.7925 11.6696 24.666 11.4724C24.3319 10.9515 23.9231 10.6107 23.6577 10.3938C22.5772 9.51083 21.2769 8.90626 20.2847 8.48773C18.8397 7.87828 18.3869 7.71361 18.1977 7.6835C18.1047 7.6687 18.0144 7.74463 17.9656 7.83055C17.9169 7.91648 17.9116 8.03304 17.9109 8.14824C17.9101 8.26344 17.9141 8.37374 17.9433 8.48779C18.0038 8.7235 18.1489 8.92625 18.2958 9.11602C18.6067 9.51746 18.9906 9.77013 19.8234 10.2454C21.7762 11.3598 22.9348 11.9701 23.3755 12.1477C23.479 12.1894 23.5966 12.1983 23.7023 12.2012C23.8079 12.204 23.9022 12.1882 23.9507 12.1314C23.9992 12.0745 23.9992 11.9771 23.9579 11.8717C23.8671 11.64 23.005 10.8037 21.8048 9.62921C20.8154 8.66092 19.3182 7.97335 18.2705 7.33278C18.0926 7.224 17.982 7.19163 17.8776 7.17128C17.7731 7.15093 17.6756 7.14787 17.6142 7.19241C17.5528 7.23695 17.5305 7.32919 17.5458 7.42443C17.6333 7.96583 18.4468 8.61382 19.0319 9.10082C20.0293 9.93103 22.3022 10.6587 22.9192 10.9095C23.0324 10.9556 23.1809 10.9607 23.3061 10.9724C23.4312 10.9841 23.5346 10.9834 23.597 10.9275C23.6594 10.8716 23.6776 10.7605 23.6604 10.6636C23.6432 10.5666 23.59 10.4872 23.5022 10.3837C23.3021 10.1477 22.542 9.53834 21.3774 8.67012C19.6886 7.41103 18.6638 7.17293 18.4467 7.11745C18.3356 7.08906 18.2167 7.08676 18.1049 7.09055C17.993 7.09433 17.8902 7.11105 17.8004 7.15244C17.7106 7.19384 17.6369 7.2594 17.6074 7.35106C17.5779 7.44273 17.5948 7.5585 17.789 7.8351C18.3106 8.57811 18.8369 9.08647 19.0448 9.26907C19.4711 9.64344 20.2208 9.92036 20.8198 10.0817C20.9451 10.1154 21.081 10.1073 21.1459 10.061C21.2108 10.0146 21.2038 9.91392 21.1501 9.82464C20.4357 8.63553 18.0987 7.90866 17.8903 7.83223C17.78 7.79176 17.6503 7.77831 17.5365 7.78019C17.4228 7.78207 17.3262 7.80747 17.2705 7.86798C17.2148 7.92848 17.2028 8.02332 17.2331 8.1261C17.3734 8.60125 18.0583 9.08934 18.5272 9.44095C18.6134 9.50553 18.7158 9.54236 18.7954 9.52753C18.8749 9.5127 18.9353 9.43455 18.9366 9.34815C18.9379 9.26174 18.8782 9.16946 18.8162 9.08384C18.6965 8.91849 18.4963 8.71586 18.2316 8.47596C17.9829 8.25051 17.7111 8.1199 17.483 8.02617C17.3755 7.98197 17.2751 7.96972 17.1929 7.99606C17.1108 8.0224 17.0475 8.09413 17.057 8.17203C17.1149 8.64854 17.9499 8.92338 18.3582 9.16725C18.454 9.21809 18.5566 9.26788 18.6561 9.31859C18.7555 9.3693 18.8488 9.41942 19.0332 9.55428" stroke="#FDC700" stroke-width="1.15817" stroke-linecap="round" stroke-linejoin="round"/>
<path d="M28.9734 8.81977C28.9923 8.82503 29.1059 8.83949 29.2963 8.81365C29.3897 8.80096 29.4489 8.68881 29.4888 8.41238C29.682 7.07439 29.6862 6.41947 30.0807 5.20341C30.3212 4.4618 30.6546 3.95076 30.8566 3.68443C30.9449 3.56797 31.0443 3.52252 31.1381 3.5012C31.2318 3.47988 31.3271 3.49252 31.395 3.54705C31.4629 3.60158 31.5005 3.69763 31.521 3.81475C31.5415 3.93188 31.5437 4.06718 31.5196 4.2307C31.4672 4.58589 31.2227 5.20581 30.8349 6.13985C30.052 8.02537 29.3154 8.945 29.0069 9.41555C28.9335 9.5275 29.4604 8.09107 30.1426 6.15387C30.6695 4.65755 31.0925 3.92766 31.2508 3.69425C31.3266 3.58244 31.413 3.4981 31.4948 3.42146C31.5767 3.34482 31.6565 3.28201 31.7449 3.25896C31.8333 3.2359 31.928 3.2545 31.9841 3.42117C32.139 3.88183 32.0482 4.41234 32.0047 4.75041C31.9708 5.01391 31.8488 5.4099 31.5459 6.19624C31.0664 7.44077 30.5364 8.34774 30.3061 8.71338C30.0963 9.00584 29.7721 9.34827 29.3882 9.71565C29.2267 9.87086 29.1325 9.96268 28.9583 10.2885" stroke="#FDC700" stroke-width="1.15817" stroke-linecap="round" stroke-linejoin="round"/>
<path d="M31.8749 11.3986C31.8817 11.3983 31.9746 11.3636 32.1384 11.2691C32.5145 11.0521 32.7034 10.4531 33.0396 10.0883C33.7216 9.34824 34.9674 8.71361 35.1933 8.61877C35.4396 8.5154 35.8586 8.48477 36.3228 8.47112C36.5141 8.4655 36.6158 8.49563 36.7083 8.53221C36.8009 8.56879 36.8813 8.61937 36.9186 8.69753C36.9559 8.77568 36.9476 8.87989 36.9057 8.97885C36.8637 9.07781 36.7883 9.16837 36.7063 9.24981C36.3643 9.58939 35.1212 10.0871 33.494 10.7263C33.1249 10.8713 32.92 10.9293 32.8006 10.9304C32.4808 10.9332 33.3296 10.2846 33.8836 9.73362C34.1042 9.51424 34.3252 9.38848 34.5293 9.28451C34.734 9.18032 35.0006 9.14812 35.2824 9.11919C35.4194 9.10514 35.5451 9.10342 35.5394 9.16508C34.9566 9.77352 34.0985 10.5517 33.579 10.9227C33.3261 11.0984 33.0947 11.2486 32.8564 11.4032" stroke="#FDC700" stroke-width="1.15817" stroke-linecap="round" stroke-linejoin="round"/>
<path d="M32.6456 15.8021C32.6452 15.7902 32.6983 15.6973 32.8271 15.5466C32.8913 15.4713 32.9986 15.4442 33.225 15.4041C33.8021 15.302 35.0979 15.2488 36.615 15.2025C37.4274 15.1778 37.8131 15.2209 38.0372 15.2935C38.1216 15.3208 38.0838 15.4447 38.0173 15.5337C37.9509 15.6227 37.841 15.7026 37.7144 15.773C37.202 16.058 36.4125 16.158 35.0957 16.2866C33.9428 16.3992 33.1256 16.3524 32.9841 16.3191C32.2994 16.1575 35.0027 15.3078 36.0934 14.8893C36.8869 14.5849 37.6256 14.5324 38.0193 14.4897C38.1837 14.4719 38.2802 14.533 38.344 14.6039C38.4077 14.6748 38.4368 14.7717 38.4536 14.8718C38.4703 14.9718 38.4739 15.0721 38.4542 15.1779C38.4344 15.2837 38.3913 15.3921 38.3325 15.4873C38.2177 15.6729 38.0266 15.8144 37.8113 15.9517C37.5772 16.1008 37.2928 16.1618 36.9782 16.2257C36.5677 16.309 35.9664 16.3209 35.355 16.3168C34.9627 16.3141 34.723 16.1839 34.5287 16.0867C34.4349 16.0398 34.359 15.9816 34.2873 15.9076C34.2155 15.8335 34.1525 15.7414 34.1087 15.6409C34.0649 15.5403 34.0423 15.4343 34.0622 15.3298C34.0822 15.2253 34.1453 15.1257 34.2223 15.0413C34.3734 14.8758 34.5874 14.7619 34.8833 14.6146C35.8578 14.1292 37.0654 14.0025 38.037 13.9827C38.447 13.9743 38.7465 14.1792 38.9649 14.2776C39.0696 14.3248 39.1585 14.374 39.2193 14.4483C39.2801 14.5226 39.3093 14.6225 39.2705 14.7106C39.2317 14.7987 39.1241 14.872 39.0069 14.9387C38.4684 15.245 37.74 15.4364 37.1281 15.5727C36.6958 15.6689 35.5221 15.6848 33.9231 15.7027C33.2356 15.6941 32.8 15.6497 32.4693 15.6053C32.1386 15.5609 31.926 15.518 31.4433 15.5588" stroke="#FDC700" stroke-width="1.15817" stroke-linecap="round" stroke-linejoin="round"/>
<path d="M18.8089 15.0198C18.8532 15.0183 19.0297 15.012 19.307 14.9721C19.4341 14.9539 19.5199 14.8746 19.5704 14.7899C19.6209 14.7053 19.63 14.6011 19.6079 14.5011C19.5857 14.4012 19.532 14.3087 19.4668 14.2279C19.1321 13.813 18.4805 13.523 17.8588 13.2951C17.5813 13.1933 17.0566 13.2092 16.4074 13.2307C16.1377 13.2396 15.9919 13.2907 15.8994 13.3589C15.8069 13.4272 15.7727 13.5228 15.8039 13.624C15.9755 14.1805 16.6794 14.4615 17.1339 14.7272C17.7268 15.074 18.4381 15.1409 19.0274 15.222C19.1863 15.2439 19.3669 15.2326 19.4121 15.1901C19.4573 15.1476 19.3629 15.0625 19.2197 14.9686C18.5186 14.5085 17.1104 14.032 15.724 13.5606C15.2829 13.4107 15.3531 13.5097 15.4943 13.6414C16.1747 14.2756 16.7697 14.5883 17.3256 14.8159C17.4868 14.8819 17.6881 14.9224 17.8527 14.9521C18.0174 14.9819 18.144 14.9869 18.2408 14.9504C18.3375 14.9138 18.4005 14.8356 18.3907 14.7591C18.3808 14.6826 18.2962 14.6102 18.1665 14.5302C16.9851 13.8019 15.1989 13.3012 15.0407 13.3431C14.9698 13.3618 15.0017 13.5155 15.0818 13.6404C15.2658 13.9269 15.6025 14.1128 15.8631 14.27C16.0777 14.3995 16.3718 14.4727 16.7006 14.5485C16.9631 14.609 17.2035 14.5911 17.4341 14.5749C17.549 14.5668 17.6582 14.5429 17.7572 14.4949C17.8563 14.4469 17.9416 14.3714 17.9964 14.2754C18.0511 14.1795 18.0727 14.0653 18.0441 13.9592C18.0155 13.8531 17.9361 13.7586 17.8503 13.6862C17.3136 13.2333 15.7504 13.1135 15.0493 13.1059C14.9853 13.1052 15.0736 13.2436 15.1573 13.3222C15.324 13.4787 15.5843 13.6043 15.8721 13.7417C16.1303 13.8649 16.3962 13.9065 16.6771 13.9307C16.8313 13.944 17.011 13.9305 17.1222 13.8823C17.2334 13.8341 17.2712 13.7442 17.238 13.6684C17.2047 13.5925 17.0992 13.5333 16.9892 13.4876C16.7679 13.4114 16.5327 13.3558 16.2808 13.3138C16.1493 13.2961 16.0105 13.2856 15.6581 13.2823" stroke="#FDC700" stroke-width="1.15817" stroke-linecap="round" stroke-linejoin="round"/>
<path d="M13.6242 22.3363C13.637 22.3358 13.6498 22.3354 13.7029 22.3225C13.7561 22.3096 13.8491 22.2843 13.9062 22.2161C13.9633 22.1478 13.9816 22.0373 13.9814 21.9255C13.981 21.7031 13.3171 20.2124 12.3434 18.079C11.955 17.2281 11.7902 17.0234 11.5886 16.7996C11.3934 16.5828 11.1176 16.4465 10.8529 16.3179C10.6104 16.2001 10.2661 16.1198 9.89287 16.0345C9.73333 15.998 9.63132 15.9898 9.56532 16.0391C9.49933 16.0884 9.47166 16.1992 9.4613 16.3176C9.44028 16.5578 9.54436 16.9216 9.72194 17.4165C9.91618 17.9577 10.1391 18.3554 10.5258 18.891C11.3433 20.0235 12.191 21.0521 12.5716 21.544C12.6944 21.7027 12.764 21.5961 12.7842 21.4825C12.9062 20.7965 12.442 19.6874 12.2142 19.0728C12.0156 18.5369 11.2688 17.7058 10.08 16.5754C9.857 16.3634 9.72538 16.2961 9.62729 16.2903C9.5292 16.2845 9.45571 16.3566 9.41993 16.4518C9.38414 16.5471 9.38828 16.6633 9.40042 16.7763C9.42407 16.9965 9.57849 17.4566 9.84453 18.1377C10.0959 18.7812 10.5269 19.4004 11.2179 20.3209C11.6767 20.9095 12.355 21.7445 12.7324 22.2194C13.1099 22.6943 13.1661 22.7838 13.1985 22.9632" stroke="#FDC700" stroke-width="1.15817" stroke-linecap="round" stroke-linejoin="round"/>
<path d="M10.5267 24.839C10.7936 24.8575 11.1629 24.8924 11.3112 24.8529C11.3746 24.836 11.3491 24.7103 11.0561 24.3903C10.2303 23.4885 9.40829 22.8262 9.05291 22.5562C8.25468 21.9499 6.8754 21.508 6.24716 21.2958C6.13204 21.2569 6.0245 21.251 5.91723 21.2465C5.80997 21.2421 5.7034 21.2488 5.59618 21.2827C5.48896 21.3165 5.38432 21.3772 5.30857 21.455C5.23281 21.5328 5.18913 21.6258 5.17433 21.7221C5.15953 21.8184 5.17493 21.9153 5.22275 22.0172C5.44699 22.4951 6.12992 22.9418 6.88464 23.4468C7.14582 23.6216 8.0448 23.8728 9.37824 24.2855C10.3163 24.5758 10.794 24.7944 11.0546 24.8361C11.1869 24.8572 11.3228 24.8525 11.3654 24.8024C11.9718 24.0885 9.52582 22.8896 8.36972 22.2268C6.92251 21.3972 5.76682 21.094 5.52645 21.0519C5.40423 21.0305 5.2776 21.0356 5.23327 21.0799C5.18894 21.1241 5.22973 21.2141 5.52216 21.4678C6.33018 22.1689 7.01991 22.6324 7.24867 22.7749C7.51109 22.9385 8.68331 23.4281 10.3432 24.1111C10.9856 24.3754 11.2297 24.4535 11.3232 24.4563C11.4166 24.4591 11.354 24.3794 11.2768 24.3132C11.1996 24.247 11.1098 24.1968 10.8624 24.0839" stroke="#FDC700" stroke-width="1.15817" stroke-linecap="round" stroke-linejoin="round"/>
<path d="M9.20245 28.5709C9.22635 28.5701 9.34874 28.5657 9.48277 28.5155C9.53157 28.4972 9.4412 28.3807 9.36398 28.3144C9.21503 28.1865 8.00325 27.7408 6.23237 27.0763C4.93006 26.5876 3.74845 26.5912 2.38193 26.6455C2.12484 26.6557 2.04424 26.7332 2.04732 26.8078C2.07776 27.5446 3.53723 28.0495 3.98985 28.2849C4.42763 28.5125 6.5103 28.674 7.73795 28.6952C7.81766 28.6966 7.77751 28.538 7.53123 28.3468C6.85376 27.8211 5.93225 27.4426 5.06747 27.1372C4.07178 26.7855 3.35943 26.6649 3.08414 26.6354C2.94843 26.6209 2.81902 26.6276 2.76557 26.6814C2.71213 26.7352 2.73812 26.8411 2.93172 27.0137C3.92045 27.895 4.94975 28.1394 5.72841 28.3652C5.87542 28.4079 6.00442 28.415 6.15143 28.4228C6.29844 28.4307 6.4624 28.4278 6.53397 28.3764C6.60554 28.3249 6.57977 28.2249 6.51866 28.1498C6.20925 27.7697 5.38531 27.7318 4.02503 27.5489C3.68527 27.5033 3.4383 27.496 3.25486 27.4879C3.07142 27.4798 2.95782 27.4809 3.00499 27.5344C3.58012 27.8403 4.01557 27.9888 4.77697 28.1465C5.02993 28.1857 5.33627 28.2223 5.87234 28.2702" stroke="#FDC700" stroke-width="1.15817" stroke-linecap="round" stroke-linejoin="round"/>
<path d="M7.56103 22.402C7.55968 22.364 7.55506 22.2342 7.51944 22.0256C7.50206 21.9239 7.42841 21.8446 7.3509 21.7674C7.19123 21.6084 6.98945 21.4968 6.76022 21.3848C6.04923 21.0373 5.29973 20.9654 4.81579 20.9486C4.69422 20.9444 4.58848 20.9803 4.51811 21.0413C4.44774 21.1023 4.41622 21.2008 4.40535 21.3066C4.39448 21.4123 4.40524 21.5224 4.44519 21.6218C4.52518 21.8208 4.70611 21.9678 4.90188 22.1294C5.48137 22.6078 6.14125 22.8613 6.44416 22.9949C6.57617 23.0531 6.67009 23.0778 6.71574 23.0371C6.76139 22.9965 6.75747 22.8862 6.70398 22.7997C6.4514 22.3915 5.61528 22.2497 4.82043 22.0208C4.62631 21.9649 4.4267 21.938 4.37527 21.9567C5.06888 22.3954 6.26846 22.9967 6.46443 23.1198C6.56088 23.1836 6.65125 23.2498 6.74435 23.3181" stroke="#FDC700" stroke-width="1.15817" stroke-linecap="round" stroke-linejoin="round"/>
<path d="M10.1464 32.9349C10.1623 32.9249 10.1782 32.9148 10.2294 32.8814C10.2806 32.8479 10.3665 32.7914 10.4252 32.8185C10.4839 32.8456 10.5127 32.958 10.4593 33.2591C10.3178 34.0567 9.86306 35.2216 9.36938 36.419C9.00062 37.3134 8.62733 37.8619 8.36218 38.219C8.24553 38.3762 8.14711 38.4705 8.04849 38.5259C7.94987 38.5813 7.8494 38.5914 7.77355 38.5437C7.6977 38.496 7.6495 38.3903 7.61794 38.2307C7.54567 37.8651 7.5772 37.53 7.6372 37.2616C7.79833 36.5408 8.28955 35.7498 9.51639 33.9129C9.97404 33.2277 10.1327 32.7821 10.2507 32.546C10.304 32.4395 10.3973 32.3909 10.4906 32.3725C10.5839 32.3541 10.688 32.3754 10.7668 32.4311C10.8455 32.4869 10.8957 32.5766 10.9113 32.6813C10.98 33.1443 10.2536 34.624 9.37313 36.3792C9.12253 36.8788 8.83307 37.1525 8.61375 37.3672C8.51375 37.4651 8.42055 37.5234 8.34045 37.5206C8.26036 37.5178 8.19208 37.4478 8.15659 37.3551C8.12111 37.2623 8.12049 37.1489 8.15409 36.9872C8.23181 36.613 8.55289 35.9067 9.15272 34.6737C9.98572 32.9615 10.6338 31.9044 10.7849 31.7262C10.8567 31.6416 10.9463 31.5946 11.0421 31.5604C11.1378 31.5263 11.2442 31.513 11.3426 31.5313C11.441 31.5497 11.5282 31.6 11.6784 31.7451" stroke="#FDC700" stroke-width="1.15817" stroke-linecap="round" stroke-linejoin="round"/>
<path d="M14.6678 33.4798C14.7241 33.4778 14.8726 33.4725 15.0865 33.5151C15.2984 33.5572 15.3505 34.8397 15.3942 36.572C15.4156 37.4208 15.2922 37.886 15.1633 38.3417C15.1084 38.5359 15.0453 38.6461 14.9739 38.7433C14.9026 38.8404 14.8173 38.9189 14.7204 38.9329C14.6234 38.947 14.5173 38.8944 14.4457 38.8222C14.374 38.7499 14.34 38.6597 14.3123 38.5536C14.254 38.3307 14.0516 36.7172 13.7574 34.3445C13.6479 33.4609 13.6463 33.2246 13.653 33.054C13.6598 32.8833 13.6819 32.7845 13.7423 32.7429C13.8028 32.7013 13.9008 32.7198 13.9933 32.7548C14.0857 32.7898 14.1695 32.8409 14.2485 32.8989C14.3274 32.9569 14.3989 33.0202 14.3854 33.0579C14.372 33.0956 14.2716 33.1057 14.195 33.17C14.1184 33.2343 14.0688 33.3524 14.018 33.5448C13.7248 34.6556 13.8418 36.317 14.0381 37.3413C14.1904 38.1365 14.1932 34.6753 14.3369 34.0237C14.3609 33.9152 14.4213 33.8334 14.4874 33.7605C14.5534 33.6877 14.6394 33.6312 14.721 33.6415C14.8026 33.6517 14.8772 33.7304 14.9238 33.9045C15.039 34.3352 14.9862 34.7572 14.8991 35.2C14.5279 36.6147 14.3583 37.0378 14.2314 37.2677C14.1632 37.3727 14.0875 37.4537 13.7508 37.4709" stroke="#FDC700" stroke-width="1.15817" stroke-linecap="round" stroke-linejoin="round"/>
<path d="M17.7623 32.0173C17.8252 32.008 18.0604 31.9644 18.4231 31.9134C18.5819 31.891 18.6938 31.916 18.7979 31.9616C18.902 32.0072 18.9961 32.0828 19.079 32.163C19.2387 32.3176 20.0374 33.4544 21.1799 35.0901C21.591 35.6788 21.6405 35.7906 21.6797 35.898C21.7188 36.0055 21.7413 36.1086 21.7036 36.1463C21.666 36.1839 21.5674 36.153 21.4357 36.0814C20.3972 35.5176 18.9788 34.0998 18.3412 33.3341C18.1102 33.0566 17.9937 32.7072 17.8836 32.3741C17.8328 32.2207 17.8196 32.0905 17.8603 32.0036C17.901 31.9168 18.0029 31.8752 18.1061 31.8629C18.2093 31.8507 18.3108 31.869 18.4242 31.9158C18.6693 32.0168 18.8732 32.1899 19.0762 32.384C19.3491 32.6449 19.9915 33.5107 20.8519 34.7062C21.4165 35.4907 21.6422 36.1049 21.8203 36.6026C21.9033 36.8347 21.9481 37.0332 21.9392 37.1751C21.9304 37.3171 21.8607 37.3986 21.766 37.4206C21.6712 37.4427 21.5536 37.403 21.4387 37.3559C20.903 37.1367 20.3063 36.6409 19.8308 36.1218C18.7861 34.9814 18.0133 32.8927 17.898 32.6191C17.8431 32.489 17.8033 32.3733 17.8265 32.2828C17.8496 32.1923 17.9388 32.1298 18.0531 32.1219C18.1674 32.1139 18.3042 32.1625 18.4261 32.2172C18.8879 32.4242 19.3919 32.9577 20.5039 34.1731C20.985 34.6989 21.259 35.1877 21.4981 35.6533C21.7705 36.1835 21.8998 36.7349 21.9652 37.1232C21.9919 37.2817 21.9291 37.3702 21.8597 37.385C21.26 36.9826 20.4313 36.235 20.031 35.7981C19.7683 35.5077 19.3847 35.0778 18.9895 34.6348" stroke="#FDC700" stroke-width="1.15817" stroke-linecap="round" stroke-linejoin="round"/>
<path d="M20.1856 28.5828C20.2368 28.581 20.3641 28.583 20.566 28.559C20.7804 28.5335 21.0775 28.1691 21.5413 27.7663C21.6466 27.6748 21.7653 27.634 21.8741 27.5964C22.0843 27.5238 22.2991 27.5162 22.506 27.5371C22.6145 27.548 22.7209 27.614 22.8159 27.6807C22.9109 27.7473 22.9889 27.8265 23.0075 27.9215C23.0262 28.0165 22.983 28.1249 22.8585 28.2711C22.5577 28.6242 22.2325 28.8405 22.0356 28.9505C21.8045 29.0795 21.5349 29.1165 21.2853 29.1398C21.155 29.1519 21.0166 29.1542 20.9067 29.1282C20.7969 29.1021 20.7197 29.0449 20.7065 28.972C20.6934 28.8991 20.7467 28.8123 20.8292 28.7279C21.1714 28.3776 21.7943 28.162 22.8305 27.7758C23.1336 27.6629 23.3895 27.6359 23.6685 27.6071C23.7991 27.5936 23.9086 27.5921 23.9933 27.6348C24.0781 27.6775 24.1351 27.7669 24.1395 27.8658C24.1438 27.9647 24.0937 28.0704 24.0196 28.1705C23.5543 28.7987 22.3876 29.405 21.9007 29.7167C21.7934 29.7853 21.6443 29.8148 21.517 29.8404C21.3898 29.8661 21.2797 29.87 21.1776 29.8341C21.0755 29.7983 20.9848 29.7225 20.9345 29.6287C20.8841 29.5349 20.8768 29.4253 20.9046 29.3205C20.9324 29.2158 20.9956 29.1191 21.0983 29.0101C21.5823 28.4962 22.183 28.3057 22.7819 28.0982C22.9314 28.0465 23.0599 28.0323 23.1733 28.0185C23.2867 28.0047 23.3839 28.0012 23.4312 28.0515C23.4785 28.1018 23.4728 28.2059 23.4238 28.2974C23.3205 28.4903 22.9422 28.7027 22.5219 28.9691C22.2585 29.136 22.0519 29.194 21.8402 29.2318C21.7285 29.2517 21.605 29.2544 21.5149 29.2119C21.4248 29.1695 21.3711 29.077 21.3671 28.986C21.3631 28.8951 21.4104 28.8085 21.4682 28.7294C21.7244 28.3788 22.282 28.0803 22.7211 27.879C23.1372 27.6881 23.5051 27.7396 23.7053 27.7544C23.8096 27.7622 23.9139 27.8129 23.989 27.8849C24.0641 27.9568 24.1053 28.0592 24.105 28.168C24.1048 28.2767 24.0618 28.3887 24 28.487C23.6736 29.0068 22.8714 29.4708 22.3632 29.7462C22.253 29.8059 22.136 29.801 22.0469 29.7695C21.9578 29.7381 21.8919 29.6615 21.8538 29.5562C21.8158 29.451 21.8077 29.3195 21.8222 29.1991C21.8498 28.9693 21.9743 28.7589 22.1076 28.5496C22.3659 28.1437 22.696 27.8908 23.1332 27.5946C23.2376 27.5238 23.3333 27.4951 23.4298 27.4692C23.5264 27.4433 23.6268 27.4302 23.7274 27.4279C23.8279 27.4257 23.9257 27.4347 24.0104 27.4809C24.0951 27.527 24.1638 27.6101 24.1982 27.7078C24.2326 27.8056 24.2305 27.9155 24.1898 28.0098C23.9846 28.4844 23.1946 28.7317 22.6864 28.9449C22.5762 28.9911 22.4758 29 22.377 29.0038C22.2783 29.0075 22.1804 28.9956 22.1356 28.9293C22.0907 28.8629 22.1018 28.7426 22.1359 28.6371C22.17 28.5317 22.2267 28.4448 22.2939 28.3624C22.4284 28.1975 22.6287 28.051 22.849 27.9129C23.0434 27.7911 23.2602 27.7258 23.4788 27.6627C23.6949 27.6002 23.9404 27.588 24.181 27.6079C24.2958 27.6174 24.384 27.698 24.4295 27.787C24.4751 27.8761 24.4723 27.9896 24.4221 28.0955C24.3154 28.3208 24.0849 28.4567 23.8943 28.5802C23.4323 28.8796 22.7487 29.0445 22.1476 29.1364C21.9636 29.1493 21.7281 29.1577 21.5603 29.1417C21.3926 29.1257 21.2997 29.0851 21.1842 28.9953" stroke="#FDC700" stroke-width="1.15817" stroke-linecap="round" stroke-linejoin="round"/>
<path d="M6.44173 31.733C6.44152 31.7271 6.35172 31.6767 6.16095 31.6118C5.7558 31.4739 4.99689 31.8468 3.9875 32.0633C3.79551 32.1044 3.69392 32.142 3.59341 32.1948C3.18024 32.4116 2.88593 32.755 2.62203 33.04C2.55592 33.1114 2.55458 33.2272 2.57913 33.3157C2.60368 33.4042 2.67549 33.4771 2.82098 33.5502C3.16959 33.7255 3.54641 33.7945 3.86893 33.8308C4.91093 33.9477 5.93326 33.5538 6.36372 33.3963C6.80254 33.2358 7.06236 32.8693 7.48009 32.4448C7.61222 32.3106 7.78556 32.1714 7.81711 32.0957C7.84866 32.0201 7.73834 32.0175 7.58513 32.0448C6.58799 32.2226 4.65308 32.9614 3.8914 33.2494C3.85428 33.2635 3.99866 33.3293 4.10672 33.3561C4.31909 33.4087 4.61769 33.4011 4.95011 33.383C5.57041 33.3493 6.43004 32.8699 7.53224 32.2295C8.40289 31.7236 4.24469 33.0118 3.74789 33.2531C3.6503 33.3005 3.59018 33.3918 3.60681 33.4457C3.62344 33.4997 3.72877 33.5304 3.85084 33.5548C4.55411 33.6952 5.48116 33.5578 6.0363 33.3895C6.36283 33.2904 6.5941 33.1046 6.75076 32.9803C6.82398 32.9125 6.88445 32.8349 6.86748 32.8234C6.85051 32.8119 6.75427 32.8688 6.45077 33.0786" stroke="#FDC700" stroke-width="1.15817" stroke-linecap="round" stroke-linejoin="round"/>
<path d="M5.58912 32.1052C5.58891 32.0993 5.57924 31.9956 5.51969 31.8134C5.48995 31.7223 5.37956 31.6719 5.28068 31.632C5.08417 31.5528 4.74844 31.5564 4.34771 31.5783C3.74604 31.6112 2.9445 32.1105 2.12467 32.4722C1.98095 32.5357 1.89853 32.5889 1.84773 32.6623C1.79693 32.7358 1.78151 32.8308 1.83205 32.9263C1.88258 33.0218 1.99954 33.1151 2.11729 33.194C2.34321 33.3454 2.59648 33.4414 2.85356 33.5167C3.36221 33.6656 4.82118 33.5571 5.868 33.4711C6.49715 33.3322 6.84247 33.2018 7.0149 33.1116C7.1009 33.0655 7.18382 33.0186 7.52958 33.0096" stroke="#FDC700" stroke-width="1.15817" stroke-linecap="round" stroke-linejoin="round"/>
<path d="M27.0386 18.6751C27.0557 18.6712 27.115 18.648 27.2038 18.6403C27.4014 18.623 27.4215 19.0116 27.5381 19.3017C27.63 19.5305 27.7343 19.7633 27.8343 20.2166C27.8982 20.506 27.9474 20.7463 27.9867 20.9667C28.0289 21.203 28.0931 21.4588 28.1555 21.8173C28.205 22.1021 28.2154 22.6885 28.193 23.0864C28.1806 23.3078 28.1404 23.5243 28.1035 23.7584C28.0613 24.0264 28.0031 24.2579 27.9543 24.4772C27.9021 24.7117 27.8152 24.936 27.719 25.1672C27.6718 25.2694 27.6253 25.3713 27.5815 25.4759C27.5603 25.5286 27.541 25.5801 27.4455 25.7489" stroke="#FDC700" stroke-width="1.15817" stroke-linecap="round" stroke-linejoin="round"/>
<path d="M20.3577 33.353C20.3313 33.2976 20.236 33.1564 20.1926 33.0771C20.1733 33.0419 20.232 32.9969 20.2816 32.9867C20.3311 32.9766 20.3884 32.9975 20.4406 33.0278C20.5442 33.0878 20.6309 33.1864 20.7294 33.3068C20.9697 33.6003 21.0464 33.8834 21.2199 34.2503C21.3479 34.5211 21.4845 34.7004 21.676 34.9198C21.8328 35.0995 21.9593 35.3067 22.0716 35.5615C22.1731 35.7917 22.2119 36.1012 22.278 36.3766C22.3423 36.6442 22.431 36.8953 22.495 37.1306C22.5552 37.3522 22.5839 37.987 22.5273 38.4027C22.5198 38.4576 22.4586 38.4916 22.4121 38.522C22.3656 38.5524 22.3131 38.5699 22.2553 38.5773C22.1976 38.5848 22.1362 38.5816 21.9385 38.5519" stroke="#FDC700" stroke-width="1.15817" stroke-linecap="round" stroke-linejoin="round"/>
<path d="M21.5393 37.8856C21.5603 37.8848 21.6345 37.8875 21.7498 37.911C21.8045 37.9221 21.8404 37.9689 21.8771 38.0149C21.9138 38.0609 21.9473 38.1143 21.9796 38.1687C22.012 38.2231 22.0421 38.277 22.0732 38.3324" stroke="#FDC700" stroke-width="1.15817" stroke-linecap="round" stroke-linejoin="round"/>
<path d="M13.3341 34.8314C13.336 34.8313 13.3379 34.8312 13.36 34.8516C13.382 34.8719 13.4242 34.9127 13.442 34.9709C13.5212 35.2305 13.4076 35.5732 13.4367 36.6065C13.4689 37.7522 13.5744 38.2192 13.6585 38.7434C13.6772 38.8597 13.6981 38.9117 13.7204 38.9621C13.7694 39.0592 13.8483 39.1706 13.9456 39.2853C13.9912 39.3365 14.0294 39.3738 14.1404 39.4691" stroke="#FDC700" stroke-width="1.15817" stroke-linecap="round" stroke-linejoin="round"/>
<path d="M10.981 23.7566C10.9807 23.7493 10.9911 23.6905 11.0356 23.5956C11.0578 23.5481 11.1266 23.5323 11.2007 23.5382C11.5235 23.5637 11.7742 23.816 12.0844 24.0024C12.3587 24.2034 12.5604 24.3816 12.683 24.5011C12.7362 24.5558 12.7713 24.5984 12.8026 24.7928" stroke="#FDC700" stroke-width="1.15817" stroke-linecap="round" stroke-linejoin="round"/>
<path d="M22.1652 21.1001C22.1795 21.0996 22.2431 21.0904 22.3521 21.0556C22.6477 20.9614 22.7654 20.5948 22.8516 20.5436C22.8937 20.5186 22.9513 20.5379 22.9851 20.5756C23.0188 20.6133 23.0317 20.6797 23.0395 20.7457C23.0708 21.0112 22.8709 21.6529 22.7122 22.1001C22.603 22.4078 22.3367 22.6984 22.0221 23.0622C21.7741 23.3488 21.5757 23.5477 21.4808 23.5814C21.4381 23.5966 21.3972 23.5265 21.4031 23.4329C21.418 23.1967 21.6067 22.845 21.7526 22.5422C21.7959 22.4523 21.8163 22.5136 21.7783 22.6815C21.6762 23.1334 21.5184 23.5148 21.4282 23.6995C21.3864 23.7851 21.342 23.8488 21.2931 23.9044C21.2441 23.9601 21.1892 24.0043 21.1268 24.0389C21.0645 24.0735 20.9964 24.0973 20.9262 24.1217" stroke="#FDC700" stroke-width="1.15817" stroke-linecap="round" stroke-linejoin="round"/>
<path d="M17.4648 21.1094C17.4384 21.1918 17.2585 21.5596 16.5707 22.6387C16.2371 23.162 16.0626 23.6891 15.9368 24.0262C15.595 24.9421 16.8852 21.4852 16.7916 21.613C16.688 21.7543 16.4313 22.3453 16.1259 23.0332C15.9039 23.5333 16.7746 21.627 16.844 21.5387C16.8576 21.5479 16.8272 21.6667 16.6217 22.1868C16.4162 22.7069 16.0367 23.6247 15.6016 24.6393" stroke="#FDC700" stroke-width="1.15817" stroke-linecap="round" stroke-linejoin="round"/>
<path d="M22.9088 17.4679C22.9141 17.4677 22.994 17.4992 23.1454 17.5863C23.4844 17.7816 23.5681 18.0792 23.6189 18.1362C23.8039 18.3441 23.2338 17.7247 23.1691 17.6735C22.9322 17.4861 23.6176 18.1514 23.6958 18.1928C23.9274 18.3154 23.4006 17.7933 23.3489 17.749C23.1069 17.5418 23.8577 18.2988 24.075 18.4791C24.0865 18.4887 23.9115 18.3589 23.8064 18.3101C23.5755 18.2029 24.1844 18.6654 24.2929 18.7853C24.3469 18.8448 24.3818 18.916 24.3587 18.9436C24.3355 18.9712 24.249 18.9567 24.1728 18.9246C24.0242 18.862 23.9027 18.7407 23.7651 18.6709C23.6993 18.6374 23.6181 18.6704 23.5811 18.731C23.4939 18.8738 23.5479 19.1071 23.5296 19.3158C23.5148 19.4188 23.4889 19.5156 23.438 19.5791C23.3871 19.6427 23.3121 19.6699 23.1964 19.6993" stroke="#FDC700" stroke-width="1.15817" stroke-linecap="round" stroke-linejoin="round"/>
<path d="M36.9756 8.61554C36.9758 8.62108 37.014 8.70807 37.0469 8.87611C37.063 8.95863 36.9918 9.04118 36.9265 9.12547C36.6314 9.50644 36.0987 9.96324 35.5851 10.4865C35.2258 10.8526 34.8994 11.1082 34.4786 11.4018C34.1244 11.6489 33.7528 11.9591 33.4224 12.2614C32.9987 12.6491 32.68 12.9729 32.2696 13.2185C32.0048 13.3276 31.7509 13.4085 31.538 13.4559C31.4328 13.4761 31.3334 13.4885 31.1851 13.5029" stroke="#FDC700" stroke-width="1.15817" stroke-linecap="round" stroke-linejoin="round"/>
<path d="M9.09169 32.4372C9.09488 32.4371 9.09807 32.4369 9.1455 32.4441C9.19293 32.4513 9.28451 32.4658 9.3185 32.5179C9.35249 32.57 9.32611 32.6592 9.26654 32.7376C8.9972 33.0921 8.46473 33.2736 7.52405 33.6649C7.01259 33.8777 6.58671 34.0308 5.72688 34.1559C4.93774 34.2708 4.55576 34.3165 3.73685 34.3422C3.18604 34.3594 2.64265 34.1001 2.24053 33.8969C2.1476 33.85 2.08671 33.7672 2.02403 33.6843C1.89571 33.5145 1.82273 33.318 1.77346 33.1008C1.74498 32.9752 1.74481 32.8118 1.75174 32.6825C1.75868 32.5532 1.78177 32.4614 1.82337 32.3733C1.86497 32.2852 1.92437 32.2037 1.99951 32.1338C2.32483 31.831 2.93067 31.7358 3.35753 31.6225C3.7796 31.5104 4.21371 31.3391 4.70625 31.209C5.98331 30.8718 6.8775 31.0181 7.25656 31.0495C7.63401 31.1402 7.97996 31.2049 8.22092 31.214C8.34339 31.2157 8.46625 31.2113 8.66506 31.1958" stroke="#FDC700" stroke-width="1.15817" stroke-linecap="round" stroke-linejoin="round"/>
<path d="M25.6341 47.4027C25.6607 47.4907 25.658 47.8841 25.6219 48.2963C25.5876 48.6867 25.5922 49.1502 25.5998 49.6188C25.6084 50.142 25.6032 50.5415 25.6153 51.3172C25.6225 51.7767 25.5849 52.1952 25.5482 52.5633C25.5112 52.9345 25.4177 53.3829 25.3341 53.8115C25.1847 54.5778 25.0448 55.8526 24.9525 56.4653C24.8938 56.8554 24.9272 57.3221 24.9151 57.7446C24.9043 58.124 24.8609 58.4849 24.8343 59.0963C24.8557 59.9653 24.8856 60.634 24.9074 60.8784C24.9167 61.0164 24.9226 61.1827 24.9287 61.3541" stroke="#4E7A27" stroke-width="1.15817" stroke-linecap="round" stroke-linejoin="round"/>
<path d="M25.6036 45.3561C25.6098 45.3559 25.6504 45.4407 25.7089 45.6211C25.8299 45.9947 25.6442 46.3748 25.5743 46.7646C25.5082 47.1335 25.5623 48.227 25.5612 48.9825C25.5606 49.3941 25.5368 49.8124 25.5283 50.3302C25.5217 50.7351 25.5088 51.1349 25.518 51.725C25.534 52.7593 25.5246 53.2173 25.5042 53.6499C25.4845 54.0669 25.3897 54.4307 25.3669 54.8138C25.3406 55.2569 25.362 55.8311 25.3588 56.3384C25.3564 56.7261 25.3315 57.166 25.3347 57.8206C25.3593 58.7028 25.3952 59.6238 25.4138 60.2003C25.4145 60.4269 25.3975 60.5198 25.3266 60.7751" stroke="#4E7A27" stroke-width="1.15817" stroke-linecap="round" stroke-linejoin="round"/>
<path d="M25.1081 43.8417C25.119 43.8413 25.1417 43.9268 25.164 44.1085C25.2194 44.5603 25.0628 45.0405 25.0019 45.5599C24.9321 46.1564 24.9386 46.6746 24.96 48.0008C24.9764 49.0151 25.0581 50.9476 25.0951 51.9879C25.1528 53.6091 25.2197 54.6073 25.2682 54.9957C25.3153 55.3716 25.3706 55.7467 25.4429 56.5367C25.4697 57.0433 25.5078 57.9594 25.5349 58.5561C25.5621 59.1528 25.5772 59.4023 25.5928 59.6594" stroke="#4E7A27" stroke-width="1.15817" stroke-linecap="round" stroke-linejoin="round"/>
<path d="M22.3349 51.8249C22.39 51.901 22.5347 52.2444 22.6914 52.6665C22.9534 53.3718 23.143 53.9046 23.3229 54.3682C23.5744 55.0162 23.6486 55.4669 23.8264 56.0077C23.9654 56.4305 24.3055 57.0675 24.5517 57.6063C24.7358 58.0811 25.0306 58.7303 25.2126 59.2312C25.2367 59.3356 25.2512 59.436 25.2726 59.7217" stroke="#4E7A27" stroke-width="1.15817" stroke-linecap="round" stroke-linejoin="round"/>
<path d="M5.85422 51.7053C5.86045 51.7051 5.95811 51.7044 6.13145 51.6649C6.49805 51.5813 6.67674 51.027 6.98475 50.7445C7.34938 50.4101 8.17952 50.0365 8.79811 49.7166C9.17646 49.5209 9.51427 49.3449 9.9595 49.2254C10.3779 49.1765 11.402 49.1226 12.2565 49.1778C12.4542 49.2186 12.7243 49.2833 13.2132 49.4214" stroke="#4E7A27" stroke-width="1.15817" stroke-linecap="round" stroke-linejoin="round"/>
<path d="M8.84591 48.6829C8.93689 48.6482 9.31932 48.5305 9.8307 48.4219C10.903 48.1943 11.3858 48.1975 12.0339 48.1704C12.6288 48.1455 13.95 48.5923 14.8324 48.8131C15.4685 48.9723 16.4582 49.2879 16.9885 49.5543C17.2305 49.7133 17.4226 49.8556 17.7113 50.118C17.9324 50.3253 18.305 50.6831 18.6889 51.0518" stroke="#4E7A27" stroke-width="1.15817" stroke-linecap="round" stroke-linejoin="round"/>
<path d="M10.2164 47.9376C10.2207 47.9374 10.2251 47.9373 10.1722 47.9715C10.1192 48.0058 10.0088 48.0744 9.89467 48.148C9.78053 48.2215 9.66602 48.2979 9.24822 48.535" stroke="#4E7A27" stroke-width="1.15817" stroke-linecap="round" stroke-linejoin="round"/>
<path d="M9.55724 47.8176C9.55694 47.8093 9.55665 47.8009 9.4877 47.8032C9.41876 47.8056 9.28118 47.8188 9.10924 47.926C8.93731 48.0331 8.73518 48.2337 8.52692 48.4403" stroke="#4E7A27" stroke-width="1.15817" stroke-linecap="round" stroke-linejoin="round"/>
<path d="M9.72858 47.55C9.74048 47.5458 9.75238 47.5416 9.6927 47.568C9.63301 47.5944 9.50138 47.6516 9.3257 47.7596C9.15002 47.8675 8.93429 48.0244 8.61426 48.238" stroke="#4E7A27" stroke-width="1.15817" stroke-linecap="round" stroke-linejoin="round"/>
<path d="M9.55633 47.5836C9.57231 47.5708 9.58829 47.5581 9.5565 47.5046C9.52472 47.4511 9.44469 47.3572 9.34108 47.3111C9.23748 47.265 9.11274 47.2694 8.9886 47.2978C8.7447 47.3785 8.50398 47.5217 8.27156 47.7075C8.15647 47.8039 8.0472 47.9045 7.93462 48.0081" stroke="#4E7A27" stroke-width="1.15817" stroke-linecap="round" stroke-linejoin="round"/>
</svg>
